<svg width="1024" height="1024" viewBox="0 0 1024 1024"
     xmlns="http://www.w3.org/2000/svg"
     style="background:#000; isolation:isolate">

<defs>
<g id="thought-src"
stroke="rgb(0,0,255)"
stroke-width="1"
fill="none"
stroke-linecap="round"
stroke-linejoin="round"
filter="url(#lightUp)">
<path id="path_thought" d="M 512 1024
 C 512 1021, 457 316, 457 313
 C 457 310, 492 347, 493 347
 C 494 347, 686 400, 686 400
 C 686 400, 523 359, 523 360
 C 523 361, 632 545, 631 546
 C 630 547, 336 730, 336 729
 C 336 728, 730 365, 730 365
 C 730 365, 365 643, 365 643
 C 365 643, 680 402, 681 402
 C 682 402, 636 531, 635 532
 C 634 533, 430 586, 430 586
 C 430 586, 551 489, 552 489
 C 553 489, 665 612, 666 611
 C 667 610, 688 305, 688 305
 C 688 305, 741 703, 741 703
 C 741 703, 650 387, 649 385
 C 648 383, 596 319, 596 319
 C 596 319, 597 450, 598 451
 C 599 452, 735 565, 735 565
 C 735 565, 598 554, 598 554
 C 598 554, 675 476, 674 476
 C 673 476, 458 557, 458 558
 C 458 559, 572 724, 573 723
 C 574 722, 637 322, 636 321
 C 635 320, 416 392, 415 394
 C 414 396, 328 728, 328 729
 C 328 730, 401 639, 401 638
 C 401 637, 455 536, 455 536
 C 455 536, 412 606, 412 606
 C 412 606, 367 412, 367 412
 C 367 412, 431 520, 431 521
 C 431 522, 304 573, 304 573
 C 304 573, 365 517, 366 518
 C 367 519, 518 727, 518 727
 C 518 727, 380 599, 381 598
 C 382 597, 667 370, 668 370
 C 669 370, 638 496, 638 497
 C 638 498, 718 718, 717 718
 C 716 718, 505 383, 504 381
 C 503 379, 383 296, 383 297
 C 383 298, 441 561, 442 561
 C 443 561, 516 419, 517 420
 C 518 421, 718 695, 718 696
 C 718 697, 599 608, 599 608
 C 599 608, 624 618, 624 617
 C 624 616, 659 348, 659 347
 C 659 346, 535 384, 535 384
 C 535 384, 715 360, 714 361
 C 713 362, 373 717, 372 717
 C 371 717, 333 432, 334 431
 C 335 430, 731 365, 731 365
 C 731 365, 364 459, 363 460
 C 362 461, 562 601, 562 601
 C 562 601, 351 381, 350 381
 C 349 381, 336 625, 336 626
 C 336 627, 453 540, 454 540
 C 455 540, 657 646, 657 646
 C 657 646, 547 634, 547 633
 C 547 632, 719 325, 718 325
 C 717 325, 352 583, 352 583
 C 352 583, 650 322, 651 322
 C 652 322, 686 482, 685 483
 C 684 484, 468 581, 468 581
 C 468 581, 568 527, 568 528
 C 568 529, 547 714, 547 714
 C 547 714, 454 469, 454 468
 C 454 467, 560 436, 560 436
 C 560 436, 532 410, 532 410
 C 532 410, 583 324, 583 325
 C 583 326, 409 731, 409 732
 C 409 733, 626 497, 627 496
 C 628 495, 716 444, 715 445
 C 714 446, 495 674, 495 674
 C 495 674, 693 523, 693 522
 C 693 521, 379 303, 378 304
 C 377 305, 485 658, 486 659
 C 487 660, 633 636, 633 636
 C 633 636, 471 654, 470 653
 C 469 652, 333 398, 333 397
 C 333 396, 413 369, 413 369
 C 413 369, 438 391, 438 391
 C 438 391, 483 480, 483 481
 C 483 482, 406 644, 406 644
 C 406 644, 375 455, 376 454
 C 377 453, 660 437, 660 437
 C 660 437, 404 535, 404 535
 C 404 535, 670 413, 671 413
 C 672 413, 661 441, 661 441
 C 661 441, 673 435, 673 436
 C 673 437, 610 619, 610 619
 C 610 619, 670 490, 670 489
 C 670 488, 604 300, 603 301
 C 602 302, 500 664, 500 666
 C 500 668, 696 736, 697 735
 C 698 734, 737 325, 736 324
 C 735 323, 513 425, 513 426
 C 513 427, 677 706, 678 706
 C 679 706, 723 522, 722 521
 C 721 520, 462 523, 461 524
 C 460 525, 586 721, 586 721
 C 586 721, 503 485, 503 485
 C 503 485, 651 713, 651 714
 C 651 715, 450 719, 449 719
 C 448 719, 374 711, 374 710
 C 374 709, 506 514, 507 514
 C 508 514, 561 606, 561 606
 C 561 606, 429 428, 429 427
 C 429 426, 523 326, 523 326
 C 523 326, 531 385, 531 385
 C 531 385, 473 421, 472 421
 C 471 421, 331 313, 331 313
 C 331 313, 591 495, 593 496
 C 595 497, 717 602, 716 602
 C 715 602, 355 370, 354 369
 C 353 368, 525 318, 526 319
 C 527 320, 554 654, 554 654
 C 554 654, 498 333, 499 333
 C 500 333, 729 652, 730 653
 C 731 654, 669 652, 668 652
 C 667 652, 485 572, 484 572
 C 483 572, 413 554, 413 554
 C 413 554, 475 534, 475 534
 C 475 534, 403 554, 403 554
 C 403 554, 404 631, 404 632
 C 404 633, 437 726, 437 725
 C 437 724, 495 368, 496 367
 C 497 366, 692 443, 693 444
 C 694 445, 737 645, 736 643
 C 735 641, 521 3, 520 0
">
</path>
</g>
<g id="will-src"
stroke="rgb(255,0,0)"
stroke-width="1"
fill="none"
stroke-linecap="round"
stroke-linejoin="round"
filter="url(#lightUp)">
<path id="path_will" d="M 513 1024
 C 513 1021, 457 310, 457 307
 C 457 304, 489 350, 490 350
 C 491 350, 676 404, 676 404
 C 676 404, 522 362, 522 363
 C 522 364, 633 544, 632 545
 C 631 546, 326 723, 326 722
 C 326 721, 729 363, 729 363
 C 729 363, 365 644, 365 644
 C 365 644, 674 399, 675 399
 C 676 399, 633 536, 632 537
 C 631 538, 432 594, 432 594
 C 432 594, 544 489, 545 489
 C 546 489, 670 609, 671 608
 C 672 607, 679 300, 679 300
 C 679 300, 736 705, 736 705
 C 736 705, 642 392, 641 391
 C 640 390, 596 323, 596 323
 C 596 323, 595 450, 596 451
 C 597 452, 732 563, 732 563
 C 732 563, 600 550, 600 550
 C 600 550, 674 484, 673 484
 C 672 484, 456 561, 456 562
 C 456 563, 578 725, 579 724
 C 580 723, 634 325, 633 324
 C 632 323, 414 385, 413 387
 C 412 389, 328 730, 328 731
 C 328 732, 399 632, 400 631
 C 401 630, 457 542, 457 542
 C 457 542, 421 599, 421 599
 C 421 599, 362 415, 362 415
 C 362 415, 433 529, 433 530
 C 433 531, 304 578, 304 578
 C 304 578, 366 516, 367 517
 C 368 518, 520 727, 520 727
 C 520 727, 376 604, 377 603
 C 378 602, 670 372, 671 372
 C 672 372, 636 493, 636 494
 C 636 495, 714 712, 713 712
 C 712 712, 507 384, 506 382
 C 505 380, 385 295, 385 296
 C 385 297, 435 563, 436 563
 C 437 563, 513 412, 514 413
 C 515 414, 722 697, 722 698
 C 722 699, 599 615, 599 615
 C 599 615, 628 625, 628 624
 C 628 623, 656 348, 656 347
 C 656 346, 529 386, 529 386
 C 529 386, 715 361, 714 362
 C 713 363, 374 725, 373 725
 C 372 725, 334 438, 335 437
 C 336 436, 724 372, 724 372
 C 724 372, 359 458, 358 459
 C 357 460, 568 598, 568 598
 C 568 598, 352 387, 351 387
 C 350 387, 335 628, 335 629
 C 335 630, 450 531, 451 531
 C 452 531, 664 645, 664 645
 C 664 645, 546 642, 546 641
 C 546 640, 721 316, 720 316
 C 719 316, 344 584, 344 584
 C 344 584, 648 325, 649 325
 C 650 325, 691 483, 690 484
 C 689 485, 466 574, 466 574
 C 466 574, 569 529, 569 530
 C 569 531, 553 715, 553 715
 C 553 715, 454 476, 454 475
 C 454 474, 560 437, 560 437
 C 560 437, 537 411, 537 411
 C 537 411, 579 314, 578 315
 C 577 316, 404 733, 404 734
 C 404 735, 629 490, 630 489
 C 631 488, 713 442, 712 443
 C 711 444, 500 664, 500 664
 C 500 664, 702 524, 702 523
 C 702 522, 389 303, 388 304
 C 387 305, 478 658, 479 659
 C 480 660, 641 639, 641 639
 C 641 639, 470 655, 469 654
 C 468 653, 330 399, 330 398
 C 330 397, 403 374, 403 374
 C 403 374, 434 394, 434 394
 C 434 394, 486 476, 486 477
 C 486 478, 414 643, 414 643
 C 414 643, 380 460, 381 459
 C 382 458, 655 433, 655 433
 C 655 433, 402 529, 402 529
 C 402 529, 673 413, 674 413
 C 675 413, 660 442, 660 442
 C 660 442, 670 430, 670 431
 C 670 432, 601 625, 601 625
 C 601 625, 667 485, 667 484
 C 667 483, 612 298, 611 299
 C 610 300, 502 672, 502 674
 C 502 676, 696 736, 697 735
 C 698 734, 731 323, 730 322
 C 729 321, 505 424, 505 425
 C 505 426, 681 696, 682 696
 C 683 696, 721 524, 720 523
 C 719 522, 462 525, 461 526
 C 460 527, 586 717, 586 717
 C 586 717, 499 486, 499 486
 C 499 486, 652 707, 652 708
 C 652 709, 447 717, 446 717
 C 445 717, 372 720, 372 719
 C 372 718, 499 512, 500 512
 C 501 512, 562 608, 562 608
 C 562 608, 433 429, 433 428
 C 433 427, 516 324, 516 324
 C 516 324, 530 381, 530 381
 C 530 381, 478 415, 477 415
 C 476 415, 327 313, 327 313
 C 327 313, 585 496, 587 497
 C 589 498, 713 612, 712 611
 C 711 610, 348 369, 347 368
 C 346 367, 527 320, 528 321
 C 529 322, 558 650, 558 650
 C 558 650, 491 338, 492 338
 C 493 338, 735 649, 736 650
 C 737 651, 666 650, 665 650
 C 664 650, 485 575, 484 575
 C 483 575, 414 561, 414 561
 C 414 561, 479 539, 479 539
 C 479 539, 400 550, 400 550
 C 400 550, 412 628, 412 629
 C 412 630, 434 726, 434 725
 C 434 724, 487 370, 488 369
 C 489 368, 689 449, 690 450
 C 691 451, 740 640, 739 638
 C 738 636, 513 2, 512 0
">
</path>
</g>
<g id="awa-src"
stroke="rgb(0,255,0)"
stroke-width="1"
fill="none"
stroke-linecap="round"
stroke-linejoin="round"
filter="url(#lightUp)">
<path id="path_awa" d="M 517 1024
 C 517 1021, 452 313, 452 310
 C 452 307, 491 352, 492 352
 C 493 352, 686 410, 686 410
 C 686 410, 520 361, 520 362
 C 520 363, 636 545, 635 546
 C 634 547, 332 730, 332 729
 C 332 728, 730 357, 730 357
 C 730 357, 364 647, 364 647
 C 364 647, 678 406, 679 406
 C 680 406, 632 534, 631 535
 C 630 536, 428 588, 428 588
 C 428 588, 546 488, 547 488
 C 548 488, 665 617, 666 616
 C 667 615, 681 304, 681 304
 C 681 304, 731 704, 731 704
 C 731 704, 647 397, 646 395
 C 645 393, 596 318, 596 318
 C 596 318, 602 457, 603 458
 C 604 459, 737 568, 737 568
 C 737 568, 602 547, 602 547
 C 602 547, 674 482, 673 482
 C 672 482, 456 564, 456 565
 C 456 566, 577 719, 578 718
 C 579 717, 636 317, 635 316
 C 634 315, 410 389, 409 391
 C 408 393, 323 735, 323 736
 C 323 737, 395 639, 396 638
 C 397 637, 454 540, 454 540
 C 454 540, 415 601, 415 601
 C 415 601, 364 415, 364 415
 C 364 415, 440 521, 440 522
 C 440 523, 305 577, 305 577
 C 305 577, 368 517, 369 518
 C 370 519, 519 728, 519 728
 C 519 728, 377 597, 378 596
 C 379 595, 664 368, 665 368
 C 666 368, 630 489, 630 490
 C 630 491, 719 712, 719 712
 C 719 712, 506 382, 505 380
 C 504 378, 384 292, 384 293
 C 384 294, 437 565, 438 565
 C 439 565, 516 413, 517 413
 C 518 413, 713 690, 713 691
 C 713 692, 600 610, 600 610
 C 600 610, 627 625, 627 624
 C 627 623, 662 349, 662 348
 C 662 347, 528 385, 528 385
 C 528 385, 717 369, 716 370
 C 715 371, 371 721, 370 721
 C 369 721, 332 437, 333 436
 C 334 435, 725 374, 725 374
 C 725 374, 354 459, 353 460
 C 352 461, 567 607, 567 607
 C 567 607, 348 388, 347 388
 C 346 388, 335 632, 335 633
 C 335 634, 453 533, 454 533
 C 455 533, 657 641, 657 641
 C 657 641, 552 635, 552 634
 C 552 633, 712 324, 711 324
 C 710 324, 351 581, 351 581
 C 351 581, 652 325, 653 325
 C 654 325, 691 485, 690 486
 C 689 487, 461 578, 461 578
 C 461 578, 565 534, 565 535
 C 565 536, 549 719, 549 719
 C 549 719, 447 469, 447 468
 C 447 467, 568 443, 568 443
 C 568 443, 539 411, 539 410
 C 539 409, 576 314, 575 315
 C 574 316, 405 727, 405 728
 C 405 729, 628 492, 629 491
 C 630 490, 716 439, 716 440
 C 716 441, 505 672, 505 672
 C 505 672, 695 522, 695 521
 C 695 520, 380 304, 379 305
 C 378 306, 482 663, 483 664
 C 484 665, 638 635, 638 635
 C 638 635, 473 663, 472 662
 C 471 661, 333 408, 333 407
 C 333 406, 405 365, 405 365
 C 405 365, 439 390, 439 390
 C 439 390, 487 482, 487 483
 C 487 484, 410 635, 410 635
 C 410 635, 371 461, 372 460
 C 373 459, 657 433, 657 433
 C 657 433, 406 527, 406 527
 C 406 527, 675 408, 676 408
 C 677 408, 653 438, 653 438
 C 653 438, 675 431, 675 432
 C 675 433, 609 619, 609 619
 C 609 619, 669 486, 669 485
 C 669 484, 613 300, 612 301
 C 611 302, 502 667, 502 669
 C 502 671, 689 734, 690 733
 C 691 732, 737 320, 736 319
 C 735 318, 509 429, 509 431
 C 509 433, 673 706, 674 706
 C 675 706, 730 524, 729 523
 C 728 522, 465 523, 464 524
 C 463 525, 593 722, 593 722
 C 593 722, 502 486, 502 486
 C 502 486, 650 716, 650 717
 C 650 718, 449 721, 448 721
 C 447 721, 367 713, 367 712
 C 367 711, 503 513, 504 513
 C 505 513, 559 605, 559 605
 C 559 605, 435 433, 435 432
 C 435 431, 521 325, 521 325
 C 521 325, 529 376, 529 376
 C 529 376, 480 422, 479 422
 C 478 422, 326 311, 326 311
 C 326 311, 583 499, 585 500
 C 587 501, 714 608, 713 607
 C 712 606, 352 369, 351 368
 C 350 367, 531 321, 532 322
 C 533 323, 554 650, 554 650
 C 554 650, 500 338, 501 338
 C 502 338, 734 649, 735 650
 C 736 651, 667 653, 666 653
 C 665 653, 488 571, 487 571
 C 486 571, 417 554, 417 554
 C 417 554, 482 529, 482 529
 C 482 529, 405 549, 405 549
 C 405 549, 406 629, 406 630
 C 406 631, 436 726, 436 725
 C 436 724, 485 370, 486 369
 C 487 368, 696 448, 697 449
 C 698 450, 733 642, 732 640
 C 731 638, 513 3, 512 0
">
</path>
</g>
<filter id="lightUp"
filterUnits="userSpaceOnUse"
x="-100%" y="-100%" width="200%" height="200%"
color-interpolation-filters="sRGB">

<feGaussianBlur in="SourceGraphic"
stdDeviation="30" 
result="blur">
</feGaussianBlur>

<feMerge>
<feMergeNode in="blur"/>
<feMergeNode in="blur"/>
<feMergeNode in="SourceGraphic"/>
</feMerge>
</filter> 
</defs>

<rect width='1024' height='1024' fill='#000'/>

  <g>
    <use href="#thought-src" style="mix-blend-mode:lighten;"/>
    <use href="#will-src" style="mix-blend-mode:lighten;"/>
    <use href="#awa-src" style="mix-blend-mode:lighten;"/>
  </g>


</svg>