<svg width="1024" height="1024" viewBox="0 0 1024 1024"
     xmlns="http://www.w3.org/2000/svg"
     style="background:#000; isolation:isolate">

<defs>
<g id="thought-src"
stroke="rgb(0,0,255)"
stroke-width="6"
fill="none"
stroke-linecap="round"
stroke-linejoin="round"
filter="url(#lightUp)">
<path id="path_thought" d="M 0 513
 C 3 517, 162 795, 169 789
 C 176 783, 417 164, 419 156
 C 421 148, 319 306, 323 306
 C 327 306, 690 179, 698 181
 C 706 183, 821 454, 819 465
 C 817 476, 561 886, 552 888
 C 543 890, 239 578, 239 570
 C 239 562, 541 392, 540 394
 C 539 396, 155 681, 157 684
 C 159 687, 660 597, 664 600
 C 668 603, 442 839, 441 844
 C 440 849, 596 896, 595 894
 C 594 892, 379 696, 383 689
 C 387 682, 844 472, 851 468
 C 858 464, 859 432, 856 437
 C 853 442, 684 760, 687 761
 C 690 762, 1019 522, 1024 518
">
</path>
</g>
<g id="will-src"
stroke="rgb(255,0,0)"
stroke-width="6"
fill="none"
stroke-linecap="round"
stroke-linejoin="round"
filter="url(#lightUp)">
<path id="path_will" d="M 0 521
 C 3 525, 165 794, 172 788
 C 179 782, 417 164, 419 156
 C 421 148, 320 308, 324 308
 C 328 308, 692 177, 700 179
 C 708 181, 823 449, 821 460
 C 819 471, 553 889, 544 891
 C 535 893, 247 583, 247 575
 C 247 567, 536 391, 535 393
 C 534 395, 154 688, 156 691
 C 158 694, 655 607, 660 609
 C 665 611, 447 833, 446 837
 C 445 841, 588 895, 587 893
 C 586 891, 380 702, 384 695
 C 388 688, 850 478, 857 474
 C 864 470, 865 434, 862 438
 C 859 442, 689 754, 692 755
 C 695 756, 1019 520, 1024 516
">
</path>
</g>
<filter id="lightUp"
filterUnits="userSpaceOnUse"
x="-100%" y="-100%" width="200%" height="200%"
color-interpolation-filters="sRGB">

<feGaussianBlur in="SourceGraphic"
stdDeviation="3" 
result="blur">
</feGaussianBlur>

<feMerge>
<feMergeNode in="blur"/>
<feMergeNode in="blur"/>
<feMergeNode in="SourceGraphic"/>
</feMerge>
</filter> 
</defs>

<rect width='1024' height='1024' fill='#000'/>

  <g>
    <use href="#thought-src" style="mix-blend-mode:lighten;"/>
    <use href="#will-src" style="mix-blend-mode:lighten;"/>
  </g>


</svg>