<svg width="1024" height="1024" viewBox="0 0 1024 1024"
     xmlns="http://www.w3.org/2000/svg"
     style="background:#000; isolation:isolate">

<defs>
<g id="thought-src"
stroke="rgb(0,0,255)"
stroke-width="13"
fill="none"
stroke-linecap="round"
stroke-linejoin="round"
filter="url(#lightUp)">
<path id="path_thought" d="M 514 1024
 C 515 1015, 528 760, 534 742
 C 540 724, 699 463, 705 453
 C 711 443, 744 423, 741 423
 C 738 423, 630 454, 622 450
 C 614 446, 468 292, 470 286
 C 472 280, 696 243, 689 249
 C 682 255, 244 477, 247 485
 C 250 493, 779 529, 788 514
 C 797 499, 530 16, 522 0
">
</path>
</g>
<g id="will-src"
stroke="rgb(255,0,0)"
stroke-width="13"
fill="none"
stroke-linecap="round"
stroke-linejoin="round"
filter="url(#lightUp)">
<path id="path_will" d="M 522 1024
 C 522 1015, 528 759, 534 741
 C 540 723, 698 467, 705 457
 C 712 447, 746 430, 743 430
 C 740 430, 624 455, 615 450
 C 606 445, 465 290, 467 284
 C 469 278, 689 243, 682 250
 C 675 257, 251 486, 254 494
 C 257 502, 776 530, 784 515
 C 792 500, 521 16, 512 0
">
</path>
</g>
<g id="awa-src"
stroke="rgb(0,255,0)"
stroke-width="13"
fill="none"
stroke-linecap="round"
stroke-linejoin="round"
filter="url(#lightUp)">
<path id="path_awa" d="M 514 1024
 C 515 1015, 527 757, 533 739
 C 539 721, 704 464, 711 454
 C 718 444, 752 430, 749 430
 C 746 430, 625 455, 616 451
 C 607 447, 469 293, 471 287
 C 473 281, 690 252, 683 258
 C 676 264, 250 480, 253 488
 C 256 496, 779 528, 787 513
 C 795 498, 528 16, 520 0
">
</path>
</g>
<filter id="lightUp"
filterUnits="userSpaceOnUse"
x="-100%" y="-100%" width="200%" height="200%"
color-interpolation-filters="sRGB">

<feGaussianBlur in="SourceGraphic"
stdDeviation="30" 
result="blur">
</feGaussianBlur>

<feMerge>
<feMergeNode in="blur"/>
<feMergeNode in="blur"/>
<feMergeNode in="SourceGraphic"/>
</feMerge>
</filter> 
</defs>

<rect width='1024' height='1024' fill='#000'/>

  <g>
    <use href="#thought-src" style="mix-blend-mode:lighten;"/>
    <use href="#will-src" style="mix-blend-mode:lighten;"/>
    <use href="#awa-src" style="mix-blend-mode:lighten;"/>
  </g>


</svg>