<svg width="1024" height="1024" viewBox="0 0 1024 1024"
     xmlns="http://www.w3.org/2000/svg"
     style="background:#000; isolation:isolate">

<defs>
<g id="thought-src"
stroke="rgb(0,0,255)"
stroke-width="6"
fill="none"
stroke-linecap="round"
stroke-linejoin="round"
filter="url(#lightUp)">
<path id="path_thought" d="M 0 518
 C 125 601, 103 849, 250 683
 C 397 517, 21 136, 293 187
 C 565 238, 598 600, 794 784
 C 990 968, 869 765, 685 554
 C 501 343, 422 525, 427 362
 C 432 199, 728 196, 695 228
 C 662 260, 355 157, 362 425
 C 369 693, 783 784, 708 764
 C 633 744, 429 649, 213 385
 C -3 121, 272 102, 277 236
 C 282 370, 104 509, 223 653
 C 342 797, 535 768, 514 523
 C 493 278, 282 214, 182 164
 C 82 114, 44 327, 315 424
 C 586 521, 511 347, 723 357
 C 935 367, 588 365, 739 443
 C 890 521, 881 477, 1024 512
">
</path>
</g>
<g id="will-src"
stroke="rgb(255,0,0)"
stroke-width="6"
fill="none"
stroke-linecap="round"
stroke-linejoin="round"
filter="url(#lightUp)">
<path id="path_will" d="M 0 515
 C 125 602, 102 852, 249 689
 C 396 526, 23 140, 294 189
 C 565 238, 590 606, 790 786
 C 990 966, 877 762, 693 548
 C 509 334, 424 520, 423 359
 C 422 198, 724 192, 692 226
 C 660 260, 351 161, 360 426
 C 369 691, 781 772, 710 755
 C 639 738, 434 652, 218 392
 C 2 132, 272 106, 278 235
 C 284 364, 107 504, 230 650
 C 353 796, 552 769, 524 526
 C 496 283, 278 218, 175 164
 C 72 110, 46 320, 319 419
 C 592 518, 514 351, 720 362
 C 926 373, 578 366, 730 441
 C 882 516, 877 476, 1024 512
">
</path>
</g>
<g id="awa-src"
stroke="rgb(0,255,0)"
stroke-width="6"
fill="none"
stroke-linecap="round"
stroke-linejoin="round"
filter="url(#lightUp)">
<path id="path_awa" d="M 0 518
 C 125 603, 100 852, 249 688
 C 398 524, 29 142, 298 190
 C 567 238, 591 603, 787 784
 C 983 965, 872 765, 689 552
 C 506 339, 418 521, 421 359
 C 424 197, 721 194, 695 228
 C 669 262, 360 159, 369 426
 C 378 693, 791 779, 713 762
 C 635 745, 434 653, 214 393
 C -6 133, 267 112, 273 242
 C 279 372, 104 510, 226 652
 C 348 794, 542 768, 516 525
 C 490 282, 270 217, 174 166
 C 78 115, 53 327, 324 424
 C 595 521, 513 348, 716 360
 C 919 372, 575 367, 729 448
 C 883 529, 876 484, 1024 521
">
</path>
</g>
<filter id="lightUp"
filterUnits="userSpaceOnUse"
x="-100%" y="-100%" width="200%" height="200%"
color-interpolation-filters="sRGB">

<feGaussianBlur in="SourceGraphic"
stdDeviation="30" 
result="blur">
</feGaussianBlur>

<feMerge>
<feMergeNode in="blur"/>
<feMergeNode in="blur"/>
<feMergeNode in="SourceGraphic"/>
</feMerge>
</filter> 
</defs>

<rect width='1024' height='1024' fill='#000'/>

  <g>
    <use href="#thought-src" style="mix-blend-mode:lighten;"/>
    <use href="#will-src" style="mix-blend-mode:lighten;"/>
    <use href="#awa-src" style="mix-blend-mode:lighten;"/>
  </g>


</svg>