<svg width="1024" height="1024" viewBox="0 0 1024 1024"
     xmlns="http://www.w3.org/2000/svg"
     style="background:#000; isolation:isolate">

<defs>
<g id="thought-src"
stroke="rgb(0,0,255)"
stroke-width="3"
fill="none"
stroke-linecap="round"
stroke-linejoin="round"
filter="url(#lightUp)">
<path id="path_thought" d="M 0 518
 C 57 466, 40 339, 228 312
 C 416 285, 723 407, 752 409
 C 781 411, 377 250, 343 319
 C 309 388, 623 610, 617 685
 C 611 760, 268 669, 320 617
 C 372 565, 762 556, 826 478
 C 890 400, 688 353, 575 304
 C 462 255, 405 156, 375 284
 C 345 412, 468 719, 456 817
 C 444 915, 321 748, 327 676
 C 333 604, 485 611, 478 528
 C 471 445, 245 295, 301 346
 C 357 397, 612 655, 700 730
 C 788 805, 665 755, 651 647
 C 637 539, 637 356, 645 297
 C 653 238, 648 419, 683 413
 C 718 407, 776 263, 784 273
 C 792 283, 857 323, 713 451
 C 569 579, 275 834, 209 784
 C 143 734, 438 357, 451 251
 C 464 145, 276 284, 262 360
 C 248 436, 256 528, 397 553
 C 538 578, 863 517, 825 461
 C 787 405, 364 384, 244 330
 C 124 276, 308 169, 346 246
 C 384 323, 302 607, 395 638
 C 488 669, 728 338, 718 371
 C 708 404, 349 811, 357 771
 C 365 731, 659 291, 749 210
 C 839 129, 778 368, 716 447
 C 654 526, 626 575, 503 526
 C 380 477, 93 255, 223 252
 C 353 249, 824 449, 1024 515
">
</path>
</g>
<g id="will-src"
stroke="rgb(255,0,0)"
stroke-width="3"
fill="none"
stroke-linecap="round"
stroke-linejoin="round"
filter="url(#lightUp)">
<path id="path_will" d="M 0 520
 C 56 469, 38 346, 224 316
 C 410 286, 717 400, 745 400
 C 773 400, 368 245, 337 317
 C 306 389, 625 615, 621 689
 C 617 763, 272 665, 323 613
 C 374 561, 762 558, 826 480
 C 890 402, 691 352, 577 302
 C 463 252, 404 155, 371 282
 C 338 409, 459 713, 447 811
 C 435 909, 315 746, 325 675
 C 335 604, 491 608, 487 526
 C 483 444, 254 297, 308 349
 C 362 401, 616 659, 702 733
 C 788 807, 667 751, 653 644
 C 639 537, 639 361, 646 305
 C 653 249, 644 428, 679 419
 C 714 410, 778 263, 786 270
 C 794 277, 854 316, 710 447
 C 566 578, 274 841, 210 793
 C 146 745, 441 363, 454 255
 C 467 147, 274 285, 260 360
 C 246 435, 258 528, 399 554
 C 540 580, 864 518, 825 462
 C 786 406, 363 384, 245 331
 C 127 278, 316 174, 354 252
 C 392 330, 305 612, 396 642
 C 487 672, 729 339, 717 373
 C 705 407, 340 820, 348 779
 C 356 738, 655 293, 748 209
 C 841 125, 784 362, 720 443
 C 656 524, 618 580, 494 531
 C 370 482, 90 254, 223 249
 C 356 244, 824 446, 1024 512
">
</path>
</g>
<g id="awa-src"
stroke="rgb(0,255,0)"
stroke-width="3"
fill="none"
stroke-linecap="round"
stroke-linejoin="round"
filter="url(#lightUp)">
<path id="path_awa" d="M 0 517
 C 56 466, 36 339, 224 312
 C 412 285, 723 406, 751 409
 C 779 412, 371 252, 337 323
 C 303 394, 621 620, 617 692
 C 613 764, 267 666, 320 612
 C 373 558, 764 556, 827 478
 C 890 400, 683 350, 570 300
 C 457 250, 406 151, 375 279
 C 344 407, 460 713, 447 812
 C 434 911, 314 747, 322 675
 C 330 603, 484 604, 479 523
 C 474 442, 245 298, 301 350
 C 357 402, 616 654, 704 729
 C 792 804, 668 755, 651 648
 C 634 541, 629 361, 638 303
 C 647 245, 650 423, 688 415
 C 726 407, 782 260, 788 270
 C 794 280, 854 323, 710 453
 C 566 583, 276 838, 212 788
 C 148 738, 442 360, 454 253
 C 466 146, 274 283, 259 359
 C 244 435, 253 531, 393 558
 C 533 585, 856 526, 818 467
 C 780 408, 360 377, 243 323
 C 126 269, 314 174, 351 253
 C 388 332, 299 609, 391 637
 C 483 665, 730 331, 720 365
 C 710 399, 345 812, 352 773
 C 359 734, 655 292, 748 210
 C 841 128, 786 365, 722 444
 C 658 523, 616 573, 493 525
 C 370 477, 99 257, 232 254
 C 365 251, 826 449, 1024 514
">
</path>
</g>
<filter id="lightUp"
filterUnits="userSpaceOnUse"
x="-100%" y="-100%" width="200%" height="200%"
color-interpolation-filters="sRGB">

<feGaussianBlur in="SourceGraphic"
stdDeviation="30" 
result="blur">
</feGaussianBlur>

<feMerge>
<feMergeNode in="blur"/>
<feMergeNode in="blur"/>
<feMergeNode in="SourceGraphic"/>
</feMerge>
</filter> 
</defs>

<rect width='1024' height='1024' fill='#000'/>

  <g>
    <use href="#thought-src" style="mix-blend-mode:lighten;"/>
    <use href="#will-src" style="mix-blend-mode:lighten;"/>
    <use href="#awa-src" style="mix-blend-mode:lighten;"/>
  </g>


</svg>