<svg width="1024" height="1024" viewBox="0 0 1024 1024"
     xmlns="http://www.w3.org/2000/svg"
     style="background:#000; isolation:isolate">

<defs>
<g id="thought-src"
stroke="rgb(0,0,255)"
stroke-width="3"
fill="none"
stroke-linecap="round"
stroke-linejoin="round"
filter="url(#lightUp)">
<path id="path_thought" d="M 0 519
 C 136 484, 366 310, 543 378
 C 720 446, 747 751, 706 789
 C 665 827, 360 653, 379 531
 C 398 409, 730 271, 782 302
 C 834 333, 605 569, 587 655
 C 569 741, 749 716, 709 647
 C 669 578, 480 392, 427 378
 C 374 364, 441 524, 498 593
 C 555 662, 646 615, 656 654
 C 666 693, 519 740, 537 747
 C 555 754, 668 672, 729 683
 C 790 694, 877 817, 782 790
 C 687 763, 359 657, 350 577
 C 341 497, 668 426, 745 472
 C 822 518, 689 732, 657 762
 C 625 792, 718 592, 616 590
 C 514 588, 236 715, 250 753
 C 264 791, 645 778, 670 740
 C 695 702, 396 617, 350 600
 C 304 583, 512 710, 487 673
 C 462 636, 261 447, 250 454
 C 239 461, 337 634, 445 702
 C 553 770, 695 832, 680 727
 C 665 622, 408 370, 387 284
 C 366 198, 526 395, 595 384
 C 664 373, 718 199, 662 239
 C 606 279, 443 407, 371 543
 C 299 679, 342 750, 376 783
 C 410 816, 439 769, 507 674
 C 575 579, 688 400, 648 402
 C 608 404, 424 620, 348 680
 C 272 740, 177 682, 346 641
 C 515 600, 854 548, 1024 517
">
</path>
</g>
<g id="will-src"
stroke="rgb(255,0,0)"
stroke-width="3"
fill="none"
stroke-linecap="round"
stroke-linejoin="round"
filter="url(#lightUp)">
<path id="path_will" d="M 0 519
 C 134 484, 362 312, 536 379
 C 710 446, 735 749, 697 788
 C 659 827, 365 655, 386 533
 C 407 411, 728 272, 780 301
 C 832 330, 612 561, 593 649
 C 574 737, 747 718, 705 651
 C 663 584, 475 394, 424 380
 C 373 366, 443 525, 502 594
 C 561 663, 651 617, 660 655
 C 669 693, 518 742, 537 747
 C 556 752, 673 663, 734 674
 C 795 685, 880 813, 781 789
 C 682 765, 348 659, 340 579
 C 332 499, 668 424, 749 471
 C 830 518, 696 738, 662 768
 C 628 798, 718 596, 614 591
 C 510 586, 233 711, 248 749
 C 263 787, 646 782, 672 744
 C 698 706, 396 615, 350 597
 C 304 579, 513 709, 489 674
 C 465 639, 266 452, 255 458
 C 244 464, 341 630, 447 698
 C 553 766, 695 833, 679 730
 C 663 627, 407 374, 385 288
 C 363 202, 523 399, 593 388
 C 663 377, 717 205, 663 243
 C 609 281, 448 404, 376 540
 C 304 676, 344 752, 377 787
 C 410 822, 438 776, 506 681
 C 574 586, 690 407, 650 406
 C 610 405, 423 620, 346 679
 C 269 738, 174 682, 344 642
 C 514 602, 854 551, 1024 520
">
</path>
</g>
<g id="awa-src"
stroke="rgb(0,255,0)"
stroke-width="3"
fill="none"
stroke-linecap="round"
stroke-linejoin="round"
filter="url(#lightUp)">
<path id="path_awa" d="M 0 516
 C 135 480, 362 307, 538 374
 C 714 441, 742 745, 704 785
 C 666 825, 367 654, 385 535
 C 403 416, 724 279, 776 308
 C 828 337, 610 565, 592 649
 C 574 733, 746 711, 703 644
 C 660 577, 472 394, 420 381
 C 368 368, 438 525, 496 593
 C 554 661, 642 613, 653 652
 C 664 691, 520 744, 539 750
 C 558 756, 668 667, 728 677
 C 788 687, 874 813, 778 789
 C 682 765, 351 660, 344 582
 C 337 504, 671 431, 750 476
 C 829 521, 694 734, 659 763
 C 624 792, 715 595, 611 592
 C 507 589, 231 712, 245 750
 C 259 788, 642 781, 668 743
 C 694 705, 394 617, 348 600
 C 302 583, 511 711, 486 676
 C 461 641, 258 452, 248 459
 C 238 466, 336 636, 446 704
 C 556 772, 703 835, 688 729
 C 673 623, 410 367, 387 281
 C 364 195, 527 397, 596 387
 C 665 377, 718 203, 663 241
 C 608 279, 449 401, 378 537
 C 307 673, 347 748, 380 784
 C 413 820, 440 778, 508 682
 C 576 586, 693 401, 653 401
 C 613 401, 427 621, 349 682
 C 271 743, 173 685, 342 644
 C 511 603, 853 549, 1024 517
">
</path>
</g>
<filter id="lightUp"
filterUnits="userSpaceOnUse"
x="-100%" y="-100%" width="200%" height="200%"
color-interpolation-filters="sRGB">

<feGaussianBlur in="SourceGraphic"
stdDeviation="30" 
result="blur">
</feGaussianBlur>

<feMerge>
<feMergeNode in="blur"/>
<feMergeNode in="blur"/>
<feMergeNode in="SourceGraphic"/>
</feMerge>
</filter> 
</defs>

<rect width='1024' height='1024' fill='#000'/>

  <g>
    <use href="#thought-src" style="mix-blend-mode:lighten;"/>
    <use href="#will-src" style="mix-blend-mode:lighten;"/>
    <use href="#awa-src" style="mix-blend-mode:lighten;"/>
  </g>


</svg>