<svg width="1024" height="1024" viewBox="0 0 1024 1024"
     xmlns="http://www.w3.org/2000/svg"
     style="background:#000; isolation:isolate">

<defs>
<g id="thought-src"
stroke="rgb(0,0,255)"
stroke-width="6"
fill="none"
stroke-linecap="round"
stroke-linejoin="round"
filter="url(#lightUp)">
<path id="path_thought" d="M 0 513
 C 59 533, 423 671, 474 673
 C 525 675, 369 515, 404 526
 C 439 537, 754 788, 754 758
 C 754 728, 433 298, 401 287
 C 369 276, 510 627, 496 672
 C 482 717, 301 684, 293 649
 C 285 614, 370 418, 429 389
 C 488 360, 726 423, 767 415
 C 808 407, 771 321, 760 324
 C 749 327, 718 407, 683 435
 C 648 463, 522 550, 477 544
 C 432 538, 295 400, 322 391
 C 349 382, 640 484, 690 472
 C 740 460, 767 271, 719 294
 C 671 317, 306 651, 309 658
 C 312 665, 651 365, 740 347
 C 829 329, 988 492, 1024 513
">
</path>
</g>
<filter id="lightUp"
filterUnits="userSpaceOnUse"
x="-100%" y="-100%" width="200%" height="200%"
color-interpolation-filters="sRGB">

<feGaussianBlur in="SourceGraphic"
stdDeviation="3" 
result="blur">
</feGaussianBlur>

<feMerge>
<feMergeNode in="blur"/>
<feMergeNode in="blur"/>
<feMergeNode in="SourceGraphic"/>
</feMerge>
</filter> 
</defs>

<rect width='1024' height='1024' fill='#000'/>

  <g>
    <use href="#thought-src" style="mix-blend-mode:lighten;"/>
  </g>


</svg>