<svg width="1024" height="1024" viewBox="0 0 1024 1024"
     xmlns="http://www.w3.org/2000/svg"
     style="background:#000; isolation:isolate">

<defs>
<g id="thought-src"
stroke="rgb(0,0,255)"
stroke-width="6"
fill="none"
stroke-linecap="round"
stroke-linejoin="round"
filter="url(#lightUp)">
<path id="path_thought" d="M 0 512
 C 78 492, 577 352, 621 350
 C 665 348, 374 458, 354 496
 C 334 534, 425 633, 461 651
 C 497 669, 612 671, 641 637
 C 670 603, 691 378, 696 382
 C 701 386, 680 652, 679 665
 C 678 678, 695 525, 686 485
 C 677 445, 641 362, 611 349
 C 581 336, 449 345, 443 381
 C 437 417, 568 605, 563 640
 C 558 675, 399 661, 406 659
 C 413 657, 608 670, 618 627
 C 628 584, 507 352, 484 318
 C 461 284, 408 328, 432 358
 C 456 388, 669 563, 675 561
 C 681 559, 437 346, 481 340
 C 525 334, 956 492, 1024 514
">
</path>
</g>
<g id="will-src"
stroke="rgb(255,0,0)"
stroke-width="6"
fill="none"
stroke-linecap="round"
stroke-linejoin="round"
filter="url(#lightUp)">
<path id="path_will" d="M 0 518
 C 78 497, 580 349, 624 347
 C 668 345, 376 465, 355 503
 C 334 541, 418 636, 453 652
 C 488 668, 605 665, 635 632
 C 665 599, 689 381, 694 385
 C 699 389, 677 653, 676 666
 C 675 679, 697 525, 689 485
 C 681 445, 646 361, 616 348
 C 586 335, 452 349, 446 385
 C 440 421, 576 604, 571 639
 C 566 674, 396 666, 403 666
 C 410 666, 614 679, 624 636
 C 634 593, 504 358, 480 323
 C 456 288, 407 330, 432 360
 C 457 390, 674 561, 680 559
 C 686 557, 440 351, 483 346
 C 526 341, 956 497, 1024 519
">
</path>
</g>
<g id="awa-src"
stroke="rgb(0,255,0)"
stroke-width="6"
fill="none"
stroke-linecap="round"
stroke-linejoin="round"
filter="url(#lightUp)">
<path id="path_awa" d="M 0 520
 C 78 498, 576 350, 621 348
 C 666 346, 379 466, 359 505
 C 339 544, 426 640, 461 656
 C 496 672, 609 664, 638 629
 C 667 594, 687 371, 693 376
 C 699 381, 686 652, 685 666
 C 684 680, 693 525, 684 485
 C 675 445, 643 359, 613 346
 C 583 333, 450 342, 444 378
 C 438 414, 574 599, 569 635
 C 564 671, 396 666, 402 666
 C 408 666, 608 677, 618 634
 C 628 591, 509 357, 485 323
 C 461 289, 406 334, 430 364
 C 454 394, 672 565, 679 562
 C 686 559, 443 345, 486 339
 C 529 333, 957 493, 1024 515
">
</path>
</g>
<filter id="lightUp"
filterUnits="userSpaceOnUse"
x="-100%" y="-100%" width="200%" height="200%"
color-interpolation-filters="sRGB">

<feGaussianBlur in="SourceGraphic"
stdDeviation="30" 
result="blur">
</feGaussianBlur>

<feMerge>
<feMergeNode in="blur"/>
<feMergeNode in="blur"/>
<feMergeNode in="SourceGraphic"/>
</feMerge>
</filter> 
</defs>

<rect width='1024' height='1024' fill='#000'/>

  <g>
    <use href="#thought-src" style="mix-blend-mode:lighten;"/>
    <use href="#will-src" style="mix-blend-mode:lighten;"/>
    <use href="#awa-src" style="mix-blend-mode:lighten;"/>
  </g>


</svg>