<svg width="1024" height="1024" viewBox="0 0 1024 1024"
     xmlns="http://www.w3.org/2000/svg"
     style="background:#000; isolation:isolate">

<defs>
<g id="thought-src"
stroke="rgb(0,0,255)"
stroke-width="6"
fill="none"
stroke-linecap="round"
stroke-linejoin="round"
filter="url(#lightUp)">
<path id="path_thought" d="M 0 518
 C 1 518, 477 325, 478 325
 C 479 325, 270 392, 270 393
 C 270 394, 285 780, 285 780
 C 285 780, 355 381, 355 381
 C 355 381, 328 751, 329 751
 C 330 751, 666 545, 666 544
 C 666 543, 393 222, 392 222
 C 391 222, 230 473, 230 473
 C 230 473, 278 378, 278 378
 C 278 378, 346 369, 346 369
 C 346 369, 242 210, 243 211
 C 244 212, 608 700, 608 701
 C 608 702, 498 759, 498 759
 C 498 759, 818 819, 818 819
 C 818 819, 386 626, 385 626
 C 384 626, 274 598, 275 598
 C 276 598, 1023 513, 1024 513
">
</path>
</g>
<g id="will-src"
stroke="rgb(255,0,0)"
stroke-width="6"
fill="none"
stroke-linecap="round"
stroke-linejoin="round"
filter="url(#lightUp)">
<path id="path_will" d="M 0 512
 C 1 512, 475 326, 476 326
 C 477 326, 269 386, 269 387
 C 269 388, 286 788, 286 788
 C 286 788, 351 387, 351 387
 C 351 387, 322 747, 323 747
 C 324 747, 666 546, 666 545
 C 666 544, 401 230, 400 230
 C 399 230, 225 472, 225 472
 C 225 472, 275 379, 275 379
 C 275 379, 338 370, 338 370
 C 338 370, 237 218, 238 219
 C 239 220, 608 702, 609 703
 C 610 704, 495 767, 495 767
 C 495 767, 813 820, 813 820
 C 813 820, 380 628, 379 628
 C 378 628, 273 597, 274 597
 C 275 597, 1023 518, 1024 518
">
</path>
</g>
<filter id="lightUp"
filterUnits="userSpaceOnUse"
x="-100%" y="-100%" width="200%" height="200%"
color-interpolation-filters="sRGB">

<feGaussianBlur in="SourceGraphic"
stdDeviation="3" 
result="blur">
</feGaussianBlur>

<feMerge>
<feMergeNode in="blur"/>
<feMergeNode in="blur"/>
<feMergeNode in="SourceGraphic"/>
</feMerge>
</filter> 
</defs>

<rect width='1024' height='1024' fill='#000'/>

  <g>
    <use href="#thought-src" style="mix-blend-mode:lighten;"/>
    <use href="#will-src" style="mix-blend-mode:lighten;"/>
  </g>


</svg>