<svg width="1024" height="1024" viewBox="0 0 1024 1024"
     xmlns="http://www.w3.org/2000/svg"
     style="background:#000; isolation:isolate">

<defs>
<g id="thought-src"
stroke="rgb(0,0,255)"
stroke-width="2"
fill="none"
stroke-linecap="round"
stroke-linejoin="round"
filter="url(#lightUp)">
<path id="path_thought" d="M 0 516
 C 27 522, 402 625, 437 613
 C 472 601, 540 327, 558 324
 C 576 321, 718 563, 718 563
 C 718 563, 559 334, 551 320
 C 543 306, 603 330, 594 347
 C 585 364, 400 578, 406 585
 C 412 592, 674 468, 685 463
 C 696 458, 574 491, 577 499
 C 580 507, 735 587, 731 583
 C 727 579, 546 427, 521 429
 C 496 431, 338 612, 326 610
 C 314 608, 315 410, 327 404
 C 339 398, 496 500, 518 516
 C 540 532, 673 667, 671 657
 C 669 647, 506 350, 488 353
 C 470 356, 389 703, 388 701
 C 387 699, 484 322, 480 316
 C 476 310, 308 600, 322 603
 C 336 606, 687 373, 704 357
 C 721 341, 607 345, 599 345
 C 591 345, 580 354, 577 364
 C 574 374, 570 494, 554 501
 C 538 508, 327 469, 320 477
 C 313 485, 434 616, 443 632
 C 452 648, 464 735, 456 725
 C 448 715, 320 499, 323 473
 C 326 447, 499 311, 506 312
 C 513 313, 431 474, 442 485
 C 453 496, 668 487, 679 485
 C 690 483, 632 455, 613 455
 C 594 455, 376 486, 377 490
 C 378 494, 627 511, 635 520
 C 643 529, 507 634, 502 628
 C 497 622, 562 416, 562 420
 C 562 424, 500 670, 508 687
 C 516 704, 692 699, 693 697
 C 694 695, 543 666, 530 649
 C 517 632, 488 433, 491 422
 C 494 411, 586 473, 576 470
 C 566 467, 347 372, 339 379
 C 331 386, 436 559, 449 581
 C 462 603, 524 727, 542 736
 C 560 745, 728 751, 731 732
 C 734 713, 611 444, 590 430
 C 569 416, 404 507, 403 516
 C 402 525, 562 563, 579 572
 C 596 581, 690 659, 673 656
 C 656 653, 332 542, 314 527
 C 296 512, 373 429, 381 423
 C 389 417, 424 443, 436 438
 C 448 433, 573 348, 566 341
 C 559 334, 326 316, 322 321
 C 318 326, 495 408, 498 414
 C 501 420, 382 411, 370 414
 C 358 417, 298 450, 314 469
 C 330 488, 622 715, 622 725
 C 622 735, 322 653, 307 636
 C 292 619, 373 450, 388 448
 C 403 446, 532 593, 545 598
 C 558 603, 591 531, 599 526
 C 607 521, 669 531, 670 525
 C 671 519, 640 438, 621 426
 C 602 414, 375 325, 362 327
 C 349 329, 375 443, 416 455
 C 457 467, 986 516, 1024 520
">
</path>
</g>
<filter id="lightUp"
filterUnits="userSpaceOnUse"
x="-100%" y="-100%" width="200%" height="200%"
color-interpolation-filters="sRGB">

<feGaussianBlur in="SourceGraphic"
stdDeviation="3" 
result="blur">
</feGaussianBlur>

<feMerge>
<feMergeNode in="blur"/>
<feMergeNode in="blur"/>
<feMergeNode in="SourceGraphic"/>
</feMerge>
</filter> 
</defs>

<rect width='1024' height='1024' fill='#000'/>

  <g>
    <use href="#thought-src" style="mix-blend-mode:lighten;"/>
  </g>


</svg>