<svg width="1024" height="1024" viewBox="0 0 1024 1024"
     xmlns="http://www.w3.org/2000/svg"
     style="background:#000; isolation:isolate">

<defs>
<g id="thought-src"
stroke="rgb(0,0,255)"
stroke-width="2"
fill="none"
stroke-linecap="round"
stroke-linejoin="round"
filter="url(#lightUp)">
<path id="path_thought" d="M 0 517
 C 9 520, 545 725, 552 722
 C 559 719, 425 329, 428 327
 C 431 325, 713 608, 715 614
 C 717 620, 529 732, 529 728
 C 529 724, 687 370, 685 366
 C 683 362, 417 494, 411 499
 C 405 504, 308 682, 311 680
 C 314 678, 595 403, 598 399
 C 601 395, 517 404, 517 409
 C 517 414, 567 724, 569 728
 C 571 732, 651 659, 652 653
 C 653 647, 665 373, 660 373
 C 655 373, 328 633, 326 633
 C 324 633, 545 364, 547 364
 C 549 364, 447 657, 449 662
 C 451 667, 696 681, 700 682
 C 704 683, 721 728, 721 726
 C 721 724, 726 533, 724 530
 C 722 527, 620 552, 617 548
 C 614 544, 538 301, 538 300
 C 538 299, 593 507, 591 513
 C 589 519, 402 705, 401 708
 C 400 711, 519 724, 520 722
 C 521 720, 467 580, 466 580
 C 465 580, 440 720, 438 722
 C 436 724, 343 704, 346 703
 C 349 702, 629 635, 630 631
 C 631 627, 425 476, 420 475
 C 415 474, 328 569, 332 573
 C 336 577, 702 711, 707 712
 C 712 713, 683 637, 677 636
 C 671 635, 330 629, 330 624
 C 330 619, 679 348, 684 346
 C 689 344, 657 472, 653 473
 C 649 474, 436 410, 432 407
 C 428 404, 370 300, 374 300
 C 378 300, 686 413, 691 416
 C 696 419, 687 484, 682 483
 C 677 482, 395 343, 394 343
 C 393 343, 626 490, 627 492
 C 628 494, 476 465, 476 465
 C 476 465, 649 525, 647 523
 C 645 521, 334 331, 332 332
 C 330 333, 534 557, 539 559
 C 544 561, 668 431, 670 432
 C 672 433, 635 640, 636 641
 C 637 642, 707 525, 706 525
 C 705 525, 592 660, 591 659
 C 590 658, 658 436, 656 437
 C 654 438, 448 698, 444 700
 C 440 702, 426 565, 428 559
 C 430 553, 551 326, 551 322
 C 551 318, 427 307, 426 313
 C 425 319, 509 694, 511 697
 C 513 700, 572 507, 573 507
 C 574 507, 602 665, 599 666
 C 596 667, 400 556, 397 551
 C 394 546, 404 362, 404 362
 C 404 362, 399 528, 399 534
 C 399 540, 399 729, 404 726
 C 409 723, 683 351, 688 345
 C 693 339, 724 327, 721 332
 C 718 337, 518 685, 513 688
 C 508 691, 411 553, 419 550
 C 427 547, 1015 522, 1024 522
">
</path>
</g>
<g id="will-src"
stroke="rgb(255,0,0)"
stroke-width="2"
fill="none"
stroke-linecap="round"
stroke-linejoin="round"
filter="url(#lightUp)">
<path id="path_will" d="M 0 520
 C 9 523, 546 731, 553 728
 C 560 725, 418 334, 421 332
 C 424 330, 715 607, 717 613
 C 719 619, 538 729, 537 725
 C 536 721, 686 365, 684 361
 C 682 357, 414 489, 408 494
 C 402 499, 308 672, 311 671
 C 314 670, 599 405, 602 401
 C 605 397, 513 395, 513 400
 C 513 405, 571 719, 573 723
 C 575 727, 652 663, 653 658
 C 654 653, 666 377, 661 377
 C 656 377, 329 634, 327 634
 C 325 634, 541 368, 543 368
 C 545 368, 440 657, 443 662
 C 446 667, 702 681, 706 682
 C 710 683, 717 732, 717 730
 C 717 728, 734 526, 732 523
 C 730 520, 621 549, 618 546
 C 615 543, 538 302, 537 302
 C 536 302, 585 512, 583 518
 C 581 524, 394 702, 393 705
 C 392 708, 515 715, 516 713
 C 517 711, 464 571, 463 571
 C 462 571, 437 717, 435 719
 C 433 721, 336 705, 339 704
 C 342 703, 635 635, 636 631
 C 637 627, 418 475, 413 474
 C 408 473, 326 574, 331 578
 C 336 582, 697 713, 702 714
 C 707 715, 684 636, 678 635
 C 672 634, 333 634, 333 629
 C 333 624, 678 348, 683 346
 C 688 344, 655 471, 651 472
 C 647 473, 433 410, 429 407
 C 425 404, 367 304, 371 304
 C 375 304, 682 421, 687 424
 C 692 427, 683 484, 678 483
 C 673 482, 394 338, 393 338
 C 392 338, 627 493, 628 495
 C 629 497, 476 460, 476 461
 C 476 462, 653 532, 651 530
 C 649 528, 339 330, 337 330
 C 335 330, 539 557, 544 559
 C 549 561, 667 434, 668 435
 C 669 436, 634 640, 634 641
 C 634 642, 699 518, 698 518
 C 697 518, 592 655, 591 654
 C 590 653, 656 442, 654 443
 C 652 444, 450 707, 446 709
 C 442 711, 423 562, 425 556
 C 427 550, 560 331, 560 327
 C 560 323, 433 303, 432 309
 C 431 315, 501 696, 503 699
 C 505 702, 572 512, 574 512
 C 576 512, 606 673, 603 674
 C 600 675, 395 560, 392 555
 C 389 550, 410 357, 410 357
 C 410 357, 403 525, 403 531
 C 403 537, 404 723, 409 720
 C 414 717, 687 349, 692 343
 C 697 337, 726 318, 723 323
 C 720 328, 516 685, 511 689
 C 506 693, 415 551, 423 548
 C 431 545, 1015 515, 1024 514
">
</path>
</g>
<g id="awa-src"
stroke="rgb(0,255,0)"
stroke-width="2"
fill="none"
stroke-linecap="round"
stroke-linejoin="round"
filter="url(#lightUp)">
<path id="path_awa" d="M 0 513
 C 9 516, 545 733, 552 730
 C 559 727, 422 333, 425 331
 C 428 329, 715 606, 717 612
 C 719 618, 537 731, 537 727
 C 537 723, 696 367, 694 363
 C 692 359, 414 493, 408 498
 C 402 503, 313 678, 316 676
 C 319 674, 604 405, 607 401
 C 610 397, 512 394, 512 399
 C 512 404, 575 729, 577 733
 C 579 737, 649 655, 650 649
 C 651 643, 667 374, 662 374
 C 657 374, 332 630, 330 630
 C 328 630, 545 361, 547 361
 C 549 361, 445 656, 447 661
 C 449 666, 693 680, 697 681
 C 701 682, 718 729, 718 727
 C 718 725, 725 534, 723 531
 C 721 528, 617 555, 614 551
 C 611 547, 542 304, 542 303
 C 542 302, 587 509, 585 515
 C 583 521, 393 700, 392 703
 C 391 706, 516 718, 517 716
 C 518 714, 474 571, 473 571
 C 472 571, 435 715, 433 717
 C 431 719, 341 704, 344 703
 C 347 702, 635 630, 636 626
 C 637 622, 419 470, 414 469
 C 409 468, 327 572, 332 576
 C 337 580, 703 714, 708 715
 C 713 716, 675 642, 669 641
 C 663 640, 335 627, 335 622
 C 335 617, 676 347, 681 345
 C 686 343, 660 476, 656 477
 C 652 478, 439 411, 435 408
 C 431 405, 372 303, 376 303
 C 380 303, 690 419, 695 422
 C 700 425, 689 489, 684 488
 C 679 487, 388 340, 387 340
 C 386 340, 634 498, 635 500
 C 636 502, 474 462, 474 462
 C 474 462, 653 524, 651 522
 C 649 520, 331 323, 329 324
 C 327 325, 534 567, 539 569
 C 544 571, 664 427, 666 428
 C 668 429, 636 644, 637 645
 C 638 646, 707 518, 706 518
 C 705 518, 584 663, 583 662
 C 582 661, 660 437, 658 438
 C 656 439, 447 700, 443 702
 C 439 704, 425 562, 427 556
 C 429 550, 555 333, 555 329
 C 555 325, 430 299, 429 305
 C 428 311, 499 695, 501 698
 C 503 701, 574 503, 575 503
 C 576 503, 599 671, 596 672
 C 593 673, 390 558, 387 553
 C 384 548, 403 358, 403 358
 C 403 358, 399 525, 399 531
 C 399 537, 400 723, 405 720
 C 410 717, 688 354, 693 348
 C 698 342, 724 318, 721 323
 C 718 328, 524 685, 519 689
 C 514 693, 414 552, 422 549
 C 430 546, 1015 521, 1024 521
">
</path>
</g>
<filter id="lightUp"
filterUnits="userSpaceOnUse"
x="-100%" y="-100%" width="200%" height="200%"
color-interpolation-filters="sRGB">

<feGaussianBlur in="SourceGraphic"
stdDeviation="30" 
result="blur">
</feGaussianBlur>

<feMerge>
<feMergeNode in="blur"/>
<feMergeNode in="blur"/>
<feMergeNode in="SourceGraphic"/>
</feMerge>
</filter> 
</defs>

<rect width='1024' height='1024' fill='#000'/>

  <g>
    <use href="#thought-src" style="mix-blend-mode:lighten;"/>
    <use href="#will-src" style="mix-blend-mode:lighten;"/>
    <use href="#awa-src" style="mix-blend-mode:lighten;"/>
  </g>


</svg>