<svg width="1024" height="1024" viewBox="0 0 1024 1024"
     xmlns="http://www.w3.org/2000/svg"
     style="background:#000; isolation:isolate">

<defs>
<g id="thought-src"
stroke="rgb(0,0,255)"
stroke-width="3"
fill="none"
stroke-linecap="round"
stroke-linejoin="round"
filter="url(#lightUp)">
<path id="path_thought" d="M 0 517
 C 2 518, 575 674, 578 673
 C 581 672, 689 332, 689 331
 C 689 330, 565 362, 564 362
 C 563 362, 554 456, 553 457
 C 552 458, 400 620, 400 621
 C 400 622, 482 616, 482 616
 C 482 616, 461 662, 461 661
 C 461 660, 452 480, 452 479
 C 452 478, 562 329, 562 328
 C 562 327, 443 305, 443 305
 C 443 305, 447 433, 447 433
 C 447 433, 460 399, 461 399
 C 462 399, 675 506, 675 506
 C 675 506, 369 321, 368 322
 C 367 323, 463 703, 463 705
 C 463 707, 399 728, 398 727
 C 397 726, 297 517, 298 516
 C 299 515, 537 549, 538 549
 C 539 549, 472 444, 472 443
 C 472 442, 540 396, 540 397
 C 540 398, 592 690, 592 690
 C 592 690, 484 524, 484 524
 C 484 524, 480 686, 481 686
 C 482 686, 684 550, 684 550
 C 684 550, 515 613, 515 614
 C 515 615, 589 706, 589 706
 C 589 706, 543 644, 543 644
 C 543 644, 465 710, 465 710
 C 465 710, 422 694, 422 693
 C 422 692, 397 458, 398 457
 C 399 456, 737 436, 737 436
 C 737 436, 360 538, 361 538
 C 362 538, 1021 514, 1024 514
">
</path>
</g>
<g id="will-src"
stroke="rgb(255,0,0)"
stroke-width="3"
fill="none"
stroke-linecap="round"
stroke-linejoin="round"
filter="url(#lightUp)">
<path id="path_will" d="M 0 522
 C 2 523, 577 673, 580 672
 C 583 671, 687 327, 687 326
 C 687 325, 565 362, 564 363
 C 563 364, 550 462, 549 463
 C 548 464, 394 628, 394 629
 C 394 630, 481 619, 481 619
 C 481 619, 470 672, 470 671
 C 470 670, 449 473, 449 472
 C 449 471, 566 333, 566 332
 C 566 331, 445 302, 445 302
 C 445 302, 452 433, 452 433
 C 452 433, 459 394, 460 394
 C 461 394, 682 509, 682 509
 C 682 509, 378 320, 377 321
 C 376 322, 467 694, 467 696
 C 467 698, 398 736, 397 735
 C 396 734, 301 523, 302 522
 C 303 521, 540 540, 541 540
 C 542 540, 466 443, 466 442
 C 466 441, 539 403, 539 404
 C 539 405, 592 690, 592 690
 C 592 690, 482 522, 482 522
 C 482 522, 480 687, 481 687
 C 482 687, 678 548, 678 548
 C 678 548, 519 610, 519 611
 C 519 612, 587 706, 587 706
 C 587 706, 534 648, 534 648
 C 534 648, 475 711, 475 711
 C 475 711, 423 690, 423 689
 C 423 688, 399 456, 400 455
 C 401 454, 732 436, 732 436
 C 732 436, 356 533, 357 533
 C 358 533, 1021 520, 1024 520
">
</path>
</g>
<filter id="lightUp"
filterUnits="userSpaceOnUse"
x="-100%" y="-100%" width="200%" height="200%"
color-interpolation-filters="sRGB">

<feGaussianBlur in="SourceGraphic"
stdDeviation="3" 
result="blur">
</feGaussianBlur>

<feMerge>
<feMergeNode in="blur"/>
<feMergeNode in="blur"/>
<feMergeNode in="SourceGraphic"/>
</feMerge>
</filter> 
</defs>

<rect width='1024' height='1024' fill='#000'/>

  <g>
    <use href="#thought-src" style="mix-blend-mode:lighten;"/>
    <use href="#will-src" style="mix-blend-mode:lighten;"/>
  </g>


</svg>