<svg width="1024" height="1024" viewBox="0 0 1024 1024"
     xmlns="http://www.w3.org/2000/svg"
     style="background:#000; isolation:isolate">

<defs>
<g id="thought-src"
stroke="rgb(0,0,255)"
stroke-width="13"
fill="none"
stroke-linecap="round"
stroke-linejoin="round"
filter="url(#lightUp)">
<path id="path_thought" d="M 517 1024
 C 562 689, 532 631, 607 355
 C 682 79, 665 430, 667 473
 C 669 516, 633 489, 610 441
 C 587 393, 659 329, 622 377
 C 585 425, 649 503, 536 536
 C 423 569, 393 450, 397 443
 C 401 436, 580 447, 543 523
 C 506 599, 339 857, 324 595
 C 309 333, 418 298, 513 0
">
</path>
</g>
<g id="will-src"
stroke="rgb(255,0,0)"
stroke-width="13"
fill="none"
stroke-linecap="round"
stroke-linejoin="round"
filter="url(#lightUp)">
<path id="path_will" d="M 522 1024
 C 565 691, 532 630, 607 358
 C 682 86, 673 437, 671 481
 C 669 525, 630 497, 604 445
 C 578 393, 652 335, 620 377
 C 588 419, 653 496, 541 528
 C 429 560, 392 440, 397 441
 C 402 442, 585 449, 550 529
 C 515 609, 346 865, 327 600
 C 308 335, 420 300, 513 0
">
</path>
</g>
<g id="awa-src"
stroke="rgb(0,255,0)"
stroke-width="13"
fill="none"
stroke-linecap="round"
stroke-linejoin="round"
filter="url(#lightUp)">
<path id="path_awa" d="M 521 1024
 C 560 691, 520 631, 598 359
 C 676 87, 673 440, 676 481
 C 679 522, 628 492, 603 441
 C 578 390, 661 333, 627 379
 C 593 425, 647 500, 536 532
 C 425 564, 402 442, 405 442
 C 408 442, 579 456, 542 532
 C 505 608, 342 860, 331 594
 C 320 328, 426 297, 521 0
">
</path>
</g>
<filter id="lightUp"
filterUnits="userSpaceOnUse"
x="-100%" y="-100%" width="200%" height="200%"
color-interpolation-filters="sRGB">

<feGaussianBlur in="SourceGraphic"
stdDeviation="30" 
result="blur">
</feGaussianBlur>

<feMerge>
<feMergeNode in="blur"/>
<feMergeNode in="blur"/>
<feMergeNode in="SourceGraphic"/>
</feMerge>
</filter> 
</defs>

<rect width='1024' height='1024' fill='#000'/>

  <g>
    <use href="#thought-src" style="mix-blend-mode:lighten;"/>
    <use href="#will-src" style="mix-blend-mode:lighten;"/>
    <use href="#awa-src" style="mix-blend-mode:lighten;"/>
  </g>


</svg>