<svg width="1024" height="1024" viewBox="0 0 1024 1024"
     xmlns="http://www.w3.org/2000/svg"
     style="background:#000; isolation:isolate">

<defs>
<g id="thought-src"
stroke="rgb(0,0,255)"
stroke-width="1"
fill="none"
stroke-linecap="round"
stroke-linejoin="round"
filter="url(#lightUp)">
<path id="path_thought" d="M 0 519
 C 10 528, 314 810, 333 815
 C 352 820, 610 676, 608 670
 C 606 664, 254 623, 259 627
 C 264 631, 780 786, 782 782
 C 784 778, 343 516, 332 502
 C 321 488, 417 339, 428 331
 C 439 323, 677 235, 686 243
 C 695 251, 731 601, 724 600
 C 717 599, 463 208, 455 212
 C 447 216, 464 704, 464 714
 C 464 724, 458 554, 465 541
 C 472 528, 694 287, 693 296
 C 692 305, 428 818, 429 817
 C 430 816, 728 273, 736 273
 C 744 273, 681 795, 674 802
 C 667 809, 519 490, 509 488
 C 499 486, 354 732, 351 724
 C 348 716, 426 255, 425 247
 C 424 239, 321 455, 319 454
 C 317 453, 354 208, 363 211
 C 372 214, 611 560, 607 559
 C 603 558, 245 195, 245 193
 C 245 191, 610 495, 618 502
 C 626 509, 503 411, 506 403
 C 509 395, 715 249, 712 260
 C 709 271, 427 750, 421 750
 C 415 750, 513 275, 523 262
 C 533 249, 733 322, 738 324
 C 743 326, 693 331, 695 334
 C 697 337, 811 394, 808 409
 C 805 424, 599 815, 593 818
 C 587 821, 616 515, 621 506
 C 626 497, 762 524, 757 534
 C 752 544, 473 827, 471 827
 C 469 827, 674 540, 678 540
 C 682 540, 590 831, 589 821
 C 588 811, 659 239, 650 233
 C 641 227, 311 626, 299 640
 C 287 654, 246 688, 255 691
 C 264 694, 575 739, 582 727
 C 589 715, 471 292, 464 293
 C 457 294, 347 747, 349 756
 C 351 765, 541 596, 543 583
 C 545 570, 421 332, 416 334
 C 411 336, 379 618, 389 633
 C 399 648, 742 826, 741 825
 C 740 824, 352 619, 346 611
 C 340 603, 547 549, 556 555
 C 565 561, 638 794, 643 795
 C 648 796, 705 580, 702 581
 C 699 582, 537 824, 534 832
 C 531 840, 595 852, 600 843
 C 605 834, 705 574, 697 556
 C 689 538, 363 290, 355 281
 C 347 272, 441 252, 437 262
 C 433 272, 226 570, 225 587
 C 224 604, 401 826, 408 816
 C 415 806, 438 294, 435 279
 C 432 264, 314 317, 322 321
 C 330 325, 667 404, 682 401
 C 697 398, 815 213, 805 212
 C 795 211, 353 360, 347 360
 C 341 360, 623 205, 627 216
 C 631 227, 487 702, 474 721
 C 461 740, 204 830, 212 830
 C 220 830, 743 735, 745 731
 C 747 727, 290 720, 281 716
 C 272 712, 433 614, 446 600
 C 459 586, 686 280, 692 279
 C 698 278, 646 560, 643 576
 C 640 592, 602 802, 608 805
 C 614 808, 821 664, 822 664
 C 823 664, 644 819, 627 814
 C 610 809, 262 492, 269 489
 C 276 486, 838 726, 843 727
 C 848 728, 436 540, 420 525
 C 404 510, 321 252, 332 250
 C 343 248, 749 438, 757 450
 C 765 462, 579 650, 573 644
 C 567 638, 580 268, 577 257
 C 574 246, 494 292, 489 298
 C 484 304, 420 427, 420 440
 C 420 453, 474 716, 476 717
 C 478 718, 482 472, 488 473
 C 494 474, 671 731, 666 736
 C 661 741, 324 634, 315 629
 C 306 624, 376 581, 390 568
 C 404 555, 758 229, 768 226
 C 778 223, 715 468, 697 484
 C 679 500, 195 731, 194 741
 C 193 751, 663 800, 669 789
 C 675 778, 376 407, 372 393
 C 368 379, 541 340, 541 340
 C 541 340, 382 386, 383 402
 C 384 418, 552 833, 565 837
 C 578 841, 795 543, 793 528
 C 791 513, 517 358, 503 354
 C 489 350, 342 392, 335 401
 C 328 410, 277 632, 293 634
 C 309 636, 827 480, 835 471
 C 843 462, 566 358, 546 351
 C 526 344, 203 266, 199 263
 C 195 260, 400 250, 405 256
 C 410 262, 368 445, 366 457
 C 364 469, 336 657, 336 649
 C 336 641, 358 207, 358 199
 C 358 191, 336 380, 341 388
 C 346 396, 503 434, 514 442
 C 525 450, 678 631, 683 634
 C 688 637, 684 545, 683 532
 C 682 519, 644 213, 640 207
 C 636 201, 553 339, 541 350
 C 529 361, 247 564, 250 566
 C 253 568, 611 413, 623 408
 C 635 403, 644 410, 648 403
 C 652 396, 773 200, 761 195
 C 749 190, 256 232, 259 248
 C 262 264, 838 695, 842 707
 C 846 719, 398 630, 378 619
 C 358 608, 182 363, 195 356
 C 208 349, 785 388, 801 395
 C 817 402, 701 583, 702 580
 C 703 577, 846 291, 842 284
 C 838 277, 594 356, 577 356
 C 560 356, 309 268, 309 278
 C 309 288, 564 683, 569 690
 C 574 697, 480 515, 472 512
 C 464 509, 299 610, 316 610
 C 333 610, 1002 520, 1024 517
">
</path>
</g>
<g id="will-src"
stroke="rgb(255,0,0)"
stroke-width="1"
fill="none"
stroke-linecap="round"
stroke-linejoin="round"
filter="url(#lightUp)">
<path id="path_will" d="M 0 520
 C 10 529, 311 809, 330 814
 C 349 819, 601 680, 599 674
 C 597 668, 253 620, 259 623
 C 265 626, 773 784, 775 780
 C 777 776, 339 517, 328 503
 C 317 489, 418 339, 429 331
 C 440 323, 678 228, 687 236
 C 696 244, 733 598, 726 597
 C 719 596, 456 210, 448 214
 C 440 218, 459 703, 460 713
 C 461 723, 466 550, 473 537
 C 480 524, 698 280, 697 289
 C 696 298, 426 812, 427 811
 C 428 810, 732 273, 740 273
 C 748 273, 686 796, 679 803
 C 672 810, 523 484, 513 482
 C 503 480, 354 738, 351 731
 C 348 724, 427 256, 426 248
 C 425 240, 318 461, 316 460
 C 314 459, 356 217, 365 220
 C 374 223, 606 553, 602 552
 C 598 551, 247 194, 247 192
 C 247 190, 605 489, 613 496
 C 621 503, 501 407, 504 400
 C 507 393, 719 257, 716 268
 C 713 279, 429 748, 423 748
 C 417 748, 518 279, 528 265
 C 538 251, 732 313, 737 315
 C 742 317, 688 324, 690 327
 C 692 330, 809 385, 806 401
 C 803 417, 604 824, 598 827
 C 592 830, 617 514, 622 505
 C 627 496, 758 520, 753 530
 C 748 540, 472 827, 470 827
 C 468 827, 675 532, 679 532
 C 683 532, 591 822, 590 813
 C 589 804, 650 236, 641 230
 C 632 224, 314 620, 302 634
 C 290 648, 245 688, 254 691
 C 263 694, 574 743, 581 731
 C 588 719, 473 291, 466 292
 C 459 293, 348 743, 350 752
 C 352 761, 542 600, 544 587
 C 546 574, 419 334, 414 335
 C 409 336, 382 616, 393 631
 C 404 646, 751 823, 750 822
 C 749 821, 358 617, 352 608
 C 346 599, 544 541, 553 547
 C 562 553, 637 793, 642 794
 C 647 795, 711 572, 708 573
 C 705 574, 534 827, 531 835
 C 528 843, 594 848, 599 839
 C 604 830, 711 575, 703 557
 C 695 539, 361 284, 353 275
 C 345 266, 441 251, 437 261
 C 433 271, 224 574, 223 591
 C 222 608, 404 827, 411 817
 C 418 807, 434 299, 431 284
 C 428 269, 320 319, 328 323
 C 336 327, 671 411, 686 407
 C 701 403, 819 210, 808 209
 C 797 208, 356 364, 350 364
 C 344 364, 627 204, 631 215
 C 635 226, 497 704, 484 723
 C 471 742, 203 827, 211 827
 C 219 827, 741 740, 743 736
 C 745 732, 289 713, 280 709
 C 271 705, 434 613, 447 600
 C 460 587, 685 280, 691 279
 C 697 278, 646 552, 643 569
 C 640 586, 605 808, 611 811
 C 617 814, 823 667, 824 667
 C 825 667, 644 818, 627 813
 C 610 808, 265 495, 272 492
 C 279 489, 832 728, 837 729
 C 842 730, 440 532, 424 517
 C 408 502, 319 251, 329 249
 C 339 247, 740 437, 748 449
 C 756 461, 574 646, 569 640
 C 564 634, 577 266, 575 255
 C 573 244, 498 289, 493 295
 C 488 301, 418 422, 418 435
 C 418 448, 479 723, 481 724
 C 483 725, 487 477, 493 477
 C 499 477, 678 730, 673 735
 C 668 740, 333 629, 324 624
 C 315 619, 371 583, 385 571
 C 399 559, 754 232, 764 229
 C 774 226, 715 468, 697 484
 C 679 500, 201 726, 200 736
 C 199 746, 661 800, 666 789
 C 671 778, 375 410, 371 396
 C 367 382, 539 340, 539 340
 C 539 340, 377 381, 378 397
 C 379 413, 550 838, 563 842
 C 576 846, 805 545, 803 530
 C 801 515, 526 360, 511 356
 C 496 352, 338 391, 331 399
 C 324 407, 275 624, 291 626
 C 307 628, 828 474, 836 465
 C 844 456, 569 359, 549 353
 C 529 347, 204 269, 200 266
 C 196 263, 404 255, 409 261
 C 414 267, 360 455, 358 467
 C 356 479, 333 658, 333 649
 C 333 640, 357 200, 357 192
 C 357 184, 341 380, 346 388
 C 351 396, 509 441, 520 449
 C 531 457, 678 626, 683 628
 C 688 630, 679 539, 678 526
 C 677 513, 650 210, 646 205
 C 642 200, 558 341, 546 352
 C 534 363, 249 558, 251 560
 C 253 562, 608 417, 620 412
 C 632 407, 646 407, 650 400
 C 654 393, 771 200, 759 195
 C 747 190, 248 237, 251 253
 C 254 269, 840 698, 844 709
 C 848 720, 405 630, 385 619
 C 365 608, 180 365, 193 358
 C 206 351, 782 388, 798 395
 C 814 402, 696 579, 697 576
 C 698 573, 848 291, 844 284
 C 840 277, 586 353, 569 353
 C 552 353, 304 270, 304 281
 C 304 292, 559 681, 564 689
 C 569 697, 478 523, 470 521
 C 462 519, 305 618, 322 618
 C 339 618, 1002 520, 1024 517
">
</path>
</g>
<g id="awa-src"
stroke="rgb(0,255,0)"
stroke-width="1"
fill="none"
stroke-linecap="round"
stroke-linejoin="round"
filter="url(#lightUp)">
<path id="path_awa" d="M 0 522
 C 10 531, 311 814, 330 819
 C 349 824, 607 678, 605 672
 C 603 666, 257 616, 262 619
 C 267 622, 774 780, 776 776
 C 778 772, 342 515, 331 501
 C 320 487, 417 336, 428 328
 C 439 320, 677 227, 686 236
 C 695 245, 733 604, 726 603
 C 719 602, 457 202, 449 206
 C 441 210, 455 706, 456 716
 C 457 726, 461 550, 468 537
 C 475 524, 694 286, 693 295
 C 692 304, 426 810, 428 809
 C 430 808, 733 266, 741 266
 C 749 266, 683 793, 676 800
 C 669 807, 521 483, 511 481
 C 501 479, 346 740, 343 733
 C 340 726, 427 262, 426 253
 C 425 244, 326 453, 324 452
 C 322 451, 354 208, 363 211
 C 372 214, 608 558, 604 557
 C 600 556, 250 193, 250 191
 C 250 189, 611 489, 619 496
 C 627 503, 504 409, 507 402
 C 510 395, 717 249, 714 260
 C 711 271, 426 750, 420 750
 C 414 750, 509 278, 519 265
 C 529 252, 735 318, 740 320
 C 745 322, 690 326, 692 329
 C 694 332, 807 392, 804 408
 C 801 424, 604 823, 598 826
 C 592 829, 615 511, 620 502
 C 625 493, 761 522, 756 532
 C 751 542, 478 831, 476 831
 C 474 831, 676 539, 680 538
 C 684 537, 589 824, 588 814
 C 587 804, 653 236, 644 230
 C 635 224, 317 620, 305 634
 C 293 648, 246 689, 254 692
 C 262 695, 570 743, 576 731
 C 582 719, 468 299, 461 300
 C 454 301, 345 747, 347 756
 C 349 765, 533 602, 535 589
 C 537 576, 412 337, 407 338
 C 402 339, 377 620, 388 635
 C 399 650, 749 825, 748 824
 C 747 823, 355 611, 349 603
 C 343 595, 539 551, 548 557
 C 557 563, 644 801, 649 802
 C 654 803, 712 581, 708 582
 C 704 583, 538 824, 535 832
 C 532 840, 592 854, 597 846
 C 602 838, 711 579, 703 561
 C 695 543, 364 292, 356 282
 C 348 272, 444 247, 440 257
 C 436 267, 224 576, 223 593
 C 222 610, 403 826, 410 816
 C 417 806, 442 296, 439 280
 C 436 264, 317 312, 325 316
 C 333 320, 665 407, 680 404
 C 695 401, 822 210, 811 209
 C 800 208, 348 368, 343 368
 C 338 368, 632 211, 636 222
 C 640 233, 488 704, 475 723
 C 462 742, 198 830, 207 830
 C 216 830, 751 734, 753 730
 C 755 726, 287 711, 277 707
 C 267 703, 435 610, 448 597
 C 461 584, 681 281, 687 280
 C 693 279, 646 557, 643 574
 C 640 591, 599 805, 605 808
 C 611 811, 821 661, 822 661
 C 823 661, 648 816, 631 811
 C 614 806, 261 490, 267 487
 C 273 484, 831 723, 836 724
 C 841 725, 435 533, 419 518
 C 403 503, 321 256, 332 254
 C 343 252, 750 429, 758 441
 C 766 453, 580 648, 574 642
 C 568 636, 580 276, 578 265
 C 576 254, 500 286, 495 291
 C 490 296, 417 418, 416 431
 C 415 444, 475 716, 477 718
 C 479 720, 487 478, 493 479
 C 499 480, 674 732, 668 737
 C 662 742, 324 628, 315 623
 C 306 618, 376 575, 390 562
 C 404 549, 756 226, 766 223
 C 776 220, 712 463, 694 479
 C 676 495, 193 725, 192 734
 C 191 743, 663 790, 668 779
 C 673 768, 369 411, 365 397
 C 361 383, 539 331, 539 331
 C 539 331, 374 383, 375 399
 C 376 415, 558 840, 571 844
 C 584 848, 802 546, 800 531
 C 798 516, 521 364, 506 360
 C 491 356, 341 390, 334 398
 C 327 406, 276 627, 292 629
 C 308 631, 834 482, 842 473
 C 850 464, 571 364, 551 357
 C 531 350, 206 265, 201 262
 C 196 259, 398 256, 403 262
 C 408 268, 369 448, 367 460
 C 365 472, 330 652, 330 644
 C 330 636, 355 205, 355 197
 C 355 189, 339 385, 344 393
 C 349 401, 504 444, 515 451
 C 526 458, 679 626, 684 628
 C 689 630, 686 543, 685 530
 C 684 517, 645 216, 640 210
 C 635 204, 550 343, 538 354
 C 526 365, 241 554, 244 556
 C 247 558, 615 423, 628 418
 C 641 413, 650 403, 654 396
 C 658 389, 776 198, 764 193
 C 752 188, 257 236, 259 252
 C 261 268, 834 697, 838 708
 C 842 719, 402 628, 382 617
 C 362 606, 184 357, 197 350
 C 210 343, 784 387, 800 394
 C 816 401, 704 574, 705 571
 C 706 568, 850 298, 846 291
 C 842 284, 594 348, 577 348
 C 560 348, 310 269, 310 280
 C 310 291, 561 687, 566 694
 C 571 701, 482 518, 474 516
 C 466 514, 306 616, 323 616
 C 340 616, 1002 524, 1024 521
">
</path>
</g>
<filter id="lightUp"
filterUnits="userSpaceOnUse"
x="-100%" y="-100%" width="200%" height="200%"
color-interpolation-filters="sRGB">

<feGaussianBlur in="SourceGraphic"
stdDeviation="30" 
result="blur">
</feGaussianBlur>

<feMerge>
<feMergeNode in="blur"/>
<feMergeNode in="blur"/>
<feMergeNode in="SourceGraphic"/>
</feMerge>
</filter> 
</defs>

<rect width='1024' height='1024' fill='#000'/>

  <g>
    <use href="#thought-src" style="mix-blend-mode:lighten;"/>
    <use href="#will-src" style="mix-blend-mode:lighten;"/>
    <use href="#awa-src" style="mix-blend-mode:lighten;"/>
  </g>


</svg>