<svg width="1024" height="1024" viewBox="0 0 1024 1024"
     xmlns="http://www.w3.org/2000/svg"
     style="background:#000; isolation:isolate">

<defs>
<g id="thought-src"
stroke="rgb(0,0,255)"
stroke-width="13"
fill="none"
stroke-linecap="round"
stroke-linejoin="round"
filter="url(#lightUp)">
<path id="path_thought" d="M 0 521
 C 1 520, 164 384, 165 385
 C 166 386, 132 622, 135 622
 C 138 622, 490 398, 493 397
 C 496 396, 554 554, 556 556
 C 558 558, 757 670, 758 669
 C 759 668, 691 443, 691 443
 C 691 443, 818 616, 816 619
 C 814 622, 490 784, 492 783
 C 494 782, 1020 514, 1024 512
">
</path>
</g>
<g id="will-src"
stroke="rgb(255,0,0)"
stroke-width="13"
fill="none"
stroke-linecap="round"
stroke-linejoin="round"
filter="url(#lightUp)">
<path id="path_will" d="M 0 519
 C 1 518, 165 384, 166 385
 C 167 386, 135 621, 138 621
 C 141 621, 487 398, 490 397
 C 493 396, 545 555, 547 557
 C 549 559, 749 666, 750 665
 C 751 664, 680 443, 681 443
 C 682 443, 817 620, 815 623
 C 813 626, 485 788, 487 787
 C 489 786, 1020 518, 1024 516
">
</path>
</g>
<g id="awa-src"
stroke="rgb(0,255,0)"
stroke-width="13"
fill="none"
stroke-linecap="round"
stroke-linejoin="round"
filter="url(#lightUp)">
<path id="path_awa" d="M 0 518
 C 1 517, 171 379, 172 380
 C 173 381, 137 617, 139 617
 C 141 617, 485 394, 488 394
 C 491 394, 553 563, 555 565
 C 557 567, 751 664, 752 663
 C 753 662, 686 440, 687 440
 C 688 440, 818 614, 816 617
 C 814 620, 490 788, 492 787
 C 494 786, 1020 516, 1024 514
">
</path>
</g>
<filter id="lightUp"
filterUnits="userSpaceOnUse"
x="-100%" y="-100%" width="200%" height="200%"
color-interpolation-filters="sRGB">

<feGaussianBlur in="SourceGraphic"
stdDeviation="30" 
result="blur">
</feGaussianBlur>

<feMerge>
<feMergeNode in="blur"/>
<feMergeNode in="blur"/>
<feMergeNode in="SourceGraphic"/>
</feMerge>
</filter> 
</defs>

<rect width='1024' height='1024' fill='#000'/>

  <g>
    <use href="#thought-src" style="mix-blend-mode:lighten;"/>
    <use href="#will-src" style="mix-blend-mode:lighten;"/>
    <use href="#awa-src" style="mix-blend-mode:lighten;"/>
  </g>


</svg>