<svg width="1024" height="1024" viewBox="0 0 1024 1024"
     xmlns="http://www.w3.org/2000/svg"
     style="background:#000; isolation:isolate">

<defs>
<g id="thought-src"
stroke="rgb(0,0,255)"
stroke-width="1"
fill="none"
stroke-linecap="round"
stroke-linejoin="round"
filter="url(#lightUp)">
<path id="path_thought" d="M 521 1024
 C 522 1016, 600 489, 602 481
 C 604 473, 623 487, 623 485
 C 623 483, 628 330, 628 330
 C 628 330, 649 479, 646 480
 C 643 481, 446 407, 441 405
 C 436 403, 309 326, 311 330
 C 313 334, 555 685, 556 690
 C 557 695, 370 652, 369 652
 C 368 652, 459 693, 464 692
 C 469 691, 661 586, 664 583
 C 667 580, 657 495, 656 493
 C 655 491, 589 442, 588 442
 C 587 442, 564 516, 565 515
 C 566 514, 648 370, 647 368
 C 646 366, 515 375, 516 378
 C 517 381, 720 553, 721 558
 C 722 563, 552 682, 552 684
 C 552 686, 696 692, 693 688
 C 690 684, 389 457, 389 454
 C 389 451, 665 493, 670 493
 C 675 493, 705 431, 703 430
 C 701 429, 523 398, 523 400
 C 523 402, 718 571, 720 575
 C 722 579, 666 675, 665 673
 C 664 671, 676 472, 676 467
 C 676 462, 657 336, 655 336
 C 653 336, 563 445, 561 446
 C 559 447, 500 418, 500 422
 C 500 426, 554 684, 556 684
 C 558 684, 602 429, 603 425
 C 604 421, 600 416, 596 420
 C 592 424, 326 654, 325 654
 C 324 654, 501 443, 505 441
 C 509 439, 573 527, 574 526
 C 575 525, 551 349, 551 352
 C 551 355, 590 682, 588 687
 C 586 692, 439 647, 438 644
 C 437 641, 503 493, 507 493
 C 511 493, 675 650, 677 650
 C 679 650, 638 518, 634 516
 C 630 514, 398 507, 393 506
 C 388 505, 310 469, 310 471
 C 310 473, 359 634, 363 634
 C 367 634, 586 504, 588 501
 C 590 498, 504 424, 506 427
 C 508 430, 717 700, 720 700
 C 723 700, 724 463, 718 458
 C 712 453, 374 368, 368 367
 C 362 366, 348 371, 348 374
 C 348 377, 359 530, 362 529
 C 365 528, 560 335, 564 333
 C 568 331, 610 417, 608 417
 C 606 417, 455 329, 451 329
 C 447 329, 374 391, 378 391
 C 382 391, 674 357, 679 357
 C 684 357, 669 389, 669 389
 C 669 389, 693 357, 688 357
 C 683 357, 360 369, 358 374
 C 356 379, 541 673, 543 672
 C 545 671, 518 341, 517 339
 C 516 337, 470 546, 468 551
 C 466 556, 371 681, 370 682
 C 369 683, 391 599, 395 593
 C 399 587, 643 317, 647 316
 C 651 315, 657 527, 657 530
 C 657 533, 670 479, 665 481
 C 660 483, 333 643, 329 643
 C 325 643, 373 452, 378 451
 C 383 450, 637 549, 640 553
 C 643 557, 580 724, 576 722
 C 572 720, 381 414, 383 409
 C 385 404, 710 396, 713 395
 C 716 394, 596 335, 596 339
 C 596 343, 692 671, 688 673
 C 684 675, 311 443, 309 441
 C 307 439, 571 525, 571 528
 C 571 531, 316 652, 318 653
 C 320 654, 689 569, 692 565
 C 695 561, 520 394, 518 392
 C 516 390, 547 414, 549 414
 C 551 414, 639 398, 641 397
 C 643 396, 675 337, 675 340
 C 675 343, 623 580, 622 584
 C 621 588, 617 592, 614 592
 C 611 592, 456 567, 453 568
 C 450 569, 431 640, 429 642
 C 427 644, 309 690, 308 690
 C 307 690, 381 621, 385 616
 C 389 611, 569 376, 573 375
 C 577 374, 622 566, 622 566
 C 622 566, 545 378, 544 376
 C 543 374, 573 408, 572 413
 C 571 418, 485 688, 486 690
 C 487 692, 643 515, 640 511
 C 637 507, 323 445, 320 442
 C 317 439, 419 336, 420 334
 C 421 332, 412 338, 411 339
 C 410 340, 354 382, 355 383
 C 356 384, 492 430, 492 432
 C 492 434, 353 533, 356 533
 C 359 533, 682 411, 686 411
 C 690 411, 639 558, 635 559
 C 631 560, 453 500, 452 497
 C 451 494, 541 379, 542 382
 C 543 385, 504 669, 502 669
 C 500 669, 424 381, 421 378
 C 418 375, 337 478, 338 480
 C 339 482, 499 485, 504 489
 C 509 493, 628 710, 628 712
 C 628 714, 516 613, 517 609
 C 518 605, 693 488, 692 484
 C 691 480, 439 377, 437 380
 C 435 383, 549 693, 551 695
 C 553 697, 583 522, 580 516
 C 577 510, 345 328, 346 331
 C 347 334, 630 709, 630 714
 C 630 719, 381 667, 377 663
 C 373 659, 396 482, 400 482
 C 404 482, 599 657, 602 660
 C 605 663, 595 655, 596 651
 C 597 647, 642 389, 643 385
 C 644 381, 640 385, 639 386
 C 638 387, 605 427, 601 427
 C 597 427, 402 408, 402 412
 C 402 416, 604 689, 606 689
 C 608 689, 518 411, 519 408
 C 520 405, 689 516, 686 517
 C 683 518, 339 477, 336 469
 C 333 461, 510 7, 513 0
">
</path>
</g>
<g id="will-src"
stroke="rgb(255,0,0)"
stroke-width="1"
fill="none"
stroke-linecap="round"
stroke-linejoin="round"
filter="url(#lightUp)">
<path id="path_will" d="M 516 1024
 C 517 1016, 597 489, 599 481
 C 601 473, 624 489, 624 487
 C 624 485, 630 337, 630 337
 C 630 337, 646 483, 643 484
 C 640 485, 449 409, 444 407
 C 439 405, 309 327, 311 331
 C 313 335, 555 685, 556 690
 C 557 695, 372 654, 371 654
 C 370 654, 459 688, 463 687
 C 467 686, 652 588, 655 585
 C 658 582, 659 491, 658 489
 C 657 487, 588 441, 587 441
 C 586 441, 567 521, 568 520
 C 569 519, 647 363, 646 361
 C 645 359, 517 374, 518 377
 C 519 380, 716 550, 717 555
 C 718 560, 552 685, 552 687
 C 552 689, 692 689, 689 685
 C 686 681, 389 458, 389 455
 C 389 452, 657 491, 662 491
 C 667 491, 703 433, 701 432
 C 699 431, 522 399, 522 401
 C 522 403, 720 566, 722 570
 C 724 574, 674 667, 673 665
 C 672 663, 676 473, 676 468
 C 676 463, 665 341, 663 341
 C 661 341, 571 455, 568 456
 C 565 457, 503 421, 503 425
 C 503 429, 563 681, 565 681
 C 567 681, 603 428, 604 424
 C 605 420, 601 419, 597 423
 C 593 427, 322 651, 321 651
 C 320 651, 500 444, 504 442
 C 508 440, 573 522, 574 520
 C 575 518, 551 341, 551 344
 C 551 347, 587 675, 585 680
 C 583 685, 437 640, 436 637
 C 435 634, 503 492, 507 492
 C 511 492, 678 656, 680 656
 C 682 656, 640 515, 635 513
 C 630 511, 394 501, 389 500
 C 384 499, 315 471, 315 473
 C 315 475, 358 632, 362 632
 C 366 632, 584 496, 586 493
 C 588 490, 501 425, 503 428
 C 505 431, 711 704, 714 704
 C 717 704, 728 456, 723 451
 C 718 446, 372 359, 366 358
 C 360 357, 345 376, 345 379
 C 345 382, 361 523, 364 522
 C 367 521, 556 332, 560 330
 C 564 328, 614 416, 612 416
 C 610 416, 452 322, 448 322
 C 444 322, 374 386, 378 387
 C 382 388, 678 359, 683 359
 C 688 359, 668 384, 668 384
 C 668 384, 690 358, 685 358
 C 680 358, 362 374, 360 379
 C 358 384, 539 674, 541 673
 C 543 672, 516 337, 515 335
 C 514 333, 465 539, 463 544
 C 461 549, 367 685, 366 686
 C 365 687, 385 599, 389 593
 C 393 587, 642 325, 646 324
 C 650 323, 652 519, 652 521
 C 652 523, 669 479, 664 481
 C 659 483, 324 638, 320 638
 C 316 638, 382 462, 387 461
 C 392 460, 634 551, 637 555
 C 640 559, 582 723, 578 721
 C 574 719, 385 412, 387 407
 C 389 402, 710 390, 713 389
 C 716 388, 601 329, 601 333
 C 601 337, 694 671, 689 673
 C 684 675, 314 438, 312 436
 C 310 434, 570 524, 570 528
 C 570 532, 316 661, 318 662
 C 320 663, 687 576, 690 572
 C 693 568, 519 388, 517 386
 C 515 384, 548 416, 550 416
 C 552 416, 646 407, 648 406
 C 650 405, 669 337, 669 340
 C 669 343, 626 582, 625 586
 C 624 590, 617 592, 614 592
 C 611 592, 454 565, 451 566
 C 448 567, 431 636, 429 638
 C 427 640, 308 685, 307 685
 C 306 685, 376 623, 380 618
 C 384 613, 565 374, 569 373
 C 573 372, 621 563, 621 563
 C 621 563, 547 377, 546 375
 C 545 373, 578 408, 577 413
 C 576 418, 482 685, 483 687
 C 484 689, 635 517, 633 513
 C 631 509, 332 444, 329 441
 C 326 438, 412 337, 413 335
 C 414 333, 414 338, 413 339
 C 412 340, 350 383, 351 384
 C 352 385, 487 425, 487 427
 C 487 429, 354 534, 357 534
 C 360 534, 678 413, 682 413
 C 686 413, 645 557, 641 558
 C 637 559, 453 497, 451 494
 C 449 491, 539 380, 540 383
 C 541 386, 498 665, 496 665
 C 494 665, 424 384, 422 381
 C 420 378, 339 475, 340 477
 C 341 479, 498 490, 503 494
 C 508 498, 631 719, 631 721
 C 631 723, 514 613, 515 609
 C 516 605, 694 492, 693 488
 C 692 484, 436 376, 434 379
 C 432 382, 550 698, 552 700
 C 554 702, 590 522, 587 516
 C 584 510, 343 333, 344 336
 C 345 339, 624 708, 625 713
 C 626 718, 382 672, 378 668
 C 374 664, 393 483, 397 483
 C 401 483, 601 649, 604 652
 C 607 655, 594 656, 595 652
 C 596 648, 642 397, 643 393
 C 644 389, 631 382, 630 383
 C 629 384, 614 429, 611 429
 C 608 429, 407 399, 407 403
 C 407 407, 601 691, 603 691
 C 605 691, 522 412, 523 409
 C 524 406, 696 509, 693 510
 C 690 511, 343 477, 340 469
 C 337 461, 510 7, 513 0
">
</path>
</g>
<g id="awa-src"
stroke="rgb(0,255,0)"
stroke-width="1"
fill="none"
stroke-linecap="round"
stroke-linejoin="round"
filter="url(#lightUp)">
<path id="path_awa" d="M 515 1024
 C 516 1016, 605 492, 607 484
 C 609 476, 621 486, 621 484
 C 621 482, 632 336, 632 336
 C 632 336, 645 479, 642 480
 C 639 481, 451 411, 446 409
 C 441 407, 313 327, 315 331
 C 317 335, 558 688, 559 693
 C 560 698, 374 649, 372 649
 C 370 649, 450 689, 454 688
 C 458 687, 652 584, 655 581
 C 658 578, 651 500, 650 498
 C 649 496, 593 446, 592 446
 C 591 446, 568 517, 569 516
 C 570 515, 651 369, 650 367
 C 649 365, 514 369, 515 372
 C 516 375, 716 544, 717 549
 C 718 554, 553 678, 553 680
 C 553 682, 700 690, 698 686
 C 696 682, 395 456, 394 453
 C 393 450, 660 498, 665 498
 C 670 498, 701 433, 699 431
 C 697 429, 523 394, 523 396
 C 523 398, 715 574, 717 578
 C 719 582, 671 666, 670 664
 C 669 662, 680 470, 680 465
 C 680 460, 660 334, 658 334
 C 656 334, 562 454, 560 456
 C 558 458, 505 428, 505 432
 C 505 436, 554 681, 556 681
 C 558 681, 606 424, 607 420
 C 608 416, 597 421, 593 425
 C 589 429, 321 654, 320 654
 C 319 654, 507 442, 511 440
 C 515 438, 563 524, 564 523
 C 565 522, 551 348, 551 350
 C 551 352, 584 678, 582 682
 C 580 686, 441 639, 440 636
 C 439 633, 504 492, 508 492
 C 512 492, 676 654, 678 654
 C 680 654, 639 516, 634 514
 C 629 512, 395 499, 390 498
 C 385 497, 311 473, 310 475
 C 309 477, 352 636, 356 636
 C 360 636, 583 498, 585 495
 C 587 492, 511 423, 513 426
 C 515 429, 712 694, 715 694
 C 718 694, 732 457, 727 452
 C 722 447, 378 360, 372 359
 C 366 358, 343 374, 343 377
 C 343 380, 360 526, 363 525
 C 366 524, 556 341, 560 339
 C 564 337, 608 421, 606 421
 C 604 421, 455 329, 451 328
 C 447 327, 372 388, 376 388
 C 380 388, 681 359, 685 359
 C 689 359, 661 388, 661 388
 C 661 388, 692 355, 687 355
 C 682 355, 366 369, 364 374
 C 362 379, 547 672, 549 671
 C 551 670, 521 332, 520 330
 C 519 328, 468 536, 466 542
 C 464 548, 369 689, 368 690
 C 367 691, 388 603, 392 597
 C 396 591, 647 325, 651 324
 C 655 323, 656 518, 656 520
 C 656 522, 674 475, 669 477
 C 664 479, 331 646, 326 646
 C 321 646, 374 460, 379 459
 C 384 458, 630 554, 633 558
 C 636 562, 578 721, 574 719
 C 570 717, 383 419, 385 414
 C 387 409, 705 390, 708 389
 C 711 388, 601 333, 601 338
 C 601 343, 691 679, 687 681
 C 683 683, 320 440, 318 438
 C 316 436, 568 522, 568 525
 C 568 528, 318 653, 320 654
 C 322 655, 694 575, 697 571
 C 700 567, 521 389, 519 387
 C 517 385, 545 412, 547 412
 C 549 412, 647 399, 649 398
 C 651 397, 676 336, 676 339
 C 676 342, 623 580, 622 584
 C 621 588, 616 591, 613 591
 C 610 591, 455 570, 452 571
 C 449 572, 424 641, 422 643
 C 420 645, 310 686, 309 686
 C 308 686, 376 621, 380 616
 C 384 611, 566 378, 570 377
 C 574 376, 614 561, 614 561
 C 614 561, 553 380, 552 378
 C 551 376, 577 404, 576 409
 C 575 414, 481 685, 482 687
 C 483 689, 640 513, 638 509
 C 636 505, 328 444, 325 441
 C 322 438, 420 332, 421 330
 C 422 328, 413 333, 412 334
 C 411 335, 350 385, 351 387
 C 352 389, 491 430, 491 432
 C 491 434, 351 536, 354 536
 C 357 536, 673 406, 677 406
 C 681 406, 637 558, 633 559
 C 629 560, 454 497, 453 494
 C 452 491, 546 373, 547 376
 C 548 379, 496 671, 494 671
 C 492 671, 423 383, 421 380
 C 419 377, 344 476, 345 478
 C 346 480, 492 485, 497 489
 C 502 493, 636 717, 636 719
 C 636 721, 512 607, 513 603
 C 514 599, 698 491, 697 487
 C 696 483, 432 371, 430 374
 C 428 377, 547 693, 549 695
 C 551 697, 588 519, 585 513
 C 582 507, 339 332, 340 335
 C 341 338, 623 704, 624 709
 C 625 714, 378 669, 374 665
 C 370 661, 392 482, 396 482
 C 400 482, 607 648, 610 651
 C 613 654, 592 655, 593 651
 C 594 647, 644 389, 645 385
 C 646 381, 634 390, 633 391
 C 632 392, 609 421, 605 421
 C 601 421, 406 399, 406 403
 C 406 407, 601 691, 603 691
 C 605 691, 523 411, 524 408
 C 525 405, 697 509, 694 510
 C 691 511, 345 480, 342 472
 C 339 464, 512 7, 515 0
">
</path>
</g>
<filter id="lightUp"
filterUnits="userSpaceOnUse"
x="-100%" y="-100%" width="200%" height="200%"
color-interpolation-filters="sRGB">

<feGaussianBlur in="SourceGraphic"
stdDeviation="30" 
result="blur">
</feGaussianBlur>

<feMerge>
<feMergeNode in="blur"/>
<feMergeNode in="blur"/>
<feMergeNode in="SourceGraphic"/>
</feMerge>
</filter> 
</defs>

<rect width='1024' height='1024' fill='#000'/>

  <g>
    <use href="#thought-src" style="mix-blend-mode:lighten;"/>
    <use href="#will-src" style="mix-blend-mode:lighten;"/>
    <use href="#awa-src" style="mix-blend-mode:lighten;"/>
  </g>


</svg>