<svg width="1024" height="1024" viewBox="0 0 1024 1024"
     xmlns="http://www.w3.org/2000/svg"
     style="background:#000; isolation:isolate">

<defs>
<g id="thought-src"
stroke="rgb(0,0,255)"
stroke-width="6"
fill="none"
stroke-linecap="round"
stroke-linejoin="round"
filter="url(#lightUp)">
<path id="path_thought" d="M 0 516
 C 2 515, 617 209, 618 208
 C 619 207, 193 190, 191 192
 C 189 194, 193 642, 194 643
 C 195 644, 570 343, 570 342
 C 570 341, 275 446, 274 447
 C 273 448, 425 579, 427 579
 C 429 579, 726 544, 725 543
 C 724 542, 268 382, 268 382
 C 268 382, 822 505, 824 506
 C 826 507, 820 541, 818 541
 C 816 541, 353 426, 351 426
 C 349 426, 305 667, 306 668
 C 307 669, 669 620, 671 618
 C 673 616, 769 211, 768 211
 C 767 211, 377 509, 376 510
 C 375 511, 601 591, 604 591
 C 607 591, 1022 513, 1024 513
">
</path>
</g>
<g id="will-src"
stroke="rgb(255,0,0)"
stroke-width="6"
fill="none"
stroke-linecap="round"
stroke-linejoin="round"
filter="url(#lightUp)">
<path id="path_will" d="M 0 515
 C 2 514, 616 208, 617 207
 C 618 206, 194 197, 192 199
 C 190 201, 194 640, 195 641
 C 196 642, 573 339, 573 338
 C 573 337, 270 443, 269 444
 C 268 445, 432 583, 434 583
 C 436 583, 723 544, 722 543
 C 721 542, 270 373, 270 373
 C 270 373, 821 510, 823 511
 C 825 512, 814 545, 812 545
 C 810 545, 354 432, 352 432
 C 350 432, 306 669, 307 670
 C 308 671, 662 617, 664 615
 C 666 613, 763 218, 762 218
 C 761 218, 373 505, 372 506
 C 371 507, 600 596, 603 596
 C 606 596, 1022 513, 1024 513
">
</path>
</g>
<g id="awa-src"
stroke="rgb(0,255,0)"
stroke-width="6"
fill="none"
stroke-linecap="round"
stroke-linejoin="round"
filter="url(#lightUp)">
<path id="path_awa" d="M 0 520
 C 2 519, 609 211, 610 210
 C 611 209, 191 191, 189 193
 C 187 195, 192 641, 194 642
 C 196 643, 577 344, 577 343
 C 577 342, 276 445, 275 446
 C 274 447, 431 585, 433 585
 C 435 585, 728 544, 727 543
 C 726 542, 270 382, 270 382
 C 270 382, 817 510, 819 511
 C 821 512, 817 542, 815 542
 C 813 542, 353 431, 351 432
 C 349 433, 310 669, 311 670
 C 312 671, 666 614, 668 612
 C 670 610, 767 217, 766 217
 C 765 217, 380 501, 379 502
 C 378 503, 597 600, 600 600
 C 603 600, 1022 521, 1024 521
">
</path>
</g>
<filter id="lightUp"
filterUnits="userSpaceOnUse"
x="-100%" y="-100%" width="200%" height="200%"
color-interpolation-filters="sRGB">

<feGaussianBlur in="SourceGraphic"
stdDeviation="30" 
result="blur">
</feGaussianBlur>

<feMerge>
<feMergeNode in="blur"/>
<feMergeNode in="blur"/>
<feMergeNode in="SourceGraphic"/>
</feMerge>
</filter> 
</defs>

<rect width='1024' height='1024' fill='#000'/>

  <g>
    <use href="#thought-src" style="mix-blend-mode:lighten;"/>
    <use href="#will-src" style="mix-blend-mode:lighten;"/>
    <use href="#awa-src" style="mix-blend-mode:lighten;"/>
  </g>


</svg>