<svg width="1024" height="1024" viewBox="0 0 1024 1024"
     xmlns="http://www.w3.org/2000/svg"
     style="background:#000; isolation:isolate">

<defs>
<g id="thought-src"
stroke="rgb(0,0,255)"
stroke-width="13"
fill="none"
stroke-linecap="round"
stroke-linejoin="round"
filter="url(#lightUp)">
<path id="path_thought" d="M 0 520
 C 38 515, 579 438, 614 436
 C 649 434, 575 495, 558 495
 C 541 495, 355 435, 345 433
 C 335 431, 396 463, 397 461
 C 398 459, 344 395, 358 408
 C 372 421, 603 670, 614 670
 C 625 670, 537 401, 535 402
 C 533 403, 554 683, 585 690
 C 616 697, 997 525, 1024 514
">
</path>
</g>
<g id="will-src"
stroke="rgb(255,0,0)"
stroke-width="13"
fill="none"
stroke-linecap="round"
stroke-linejoin="round"
filter="url(#lightUp)">
<path id="path_will" d="M 0 517
 C 38 512, 577 438, 612 437
 C 647 436, 572 496, 555 495
 C 538 494, 353 430, 343 428
 C 333 426, 389 458, 389 457
 C 389 456, 336 393, 350 407
 C 364 421, 601 674, 613 673
 C 625 672, 539 393, 537 394
 C 535 395, 553 679, 583 687
 C 613 695, 996 531, 1024 521
">
</path>
</g>
<filter id="lightUp"
filterUnits="userSpaceOnUse"
x="-100%" y="-100%" width="200%" height="200%"
color-interpolation-filters="sRGB">

<feGaussianBlur in="SourceGraphic"
stdDeviation="3" 
result="blur">
</feGaussianBlur>

<feMerge>
<feMergeNode in="blur"/>
<feMergeNode in="blur"/>
<feMergeNode in="SourceGraphic"/>
</feMerge>
</filter> 
</defs>

<rect width='1024' height='1024' fill='#000'/>

  <g>
    <use href="#thought-src" style="mix-blend-mode:lighten;"/>
    <use href="#will-src" style="mix-blend-mode:lighten;"/>
  </g>


</svg>