<svg width="1024" height="1024" viewBox="0 0 1024 1024"
     xmlns="http://www.w3.org/2000/svg"
     style="background:#000; isolation:isolate">

<defs>
<g id="thought-src"
stroke="rgb(0,0,255)"
stroke-width="13"
fill="none"
stroke-linecap="round"
stroke-linejoin="round"
filter="url(#lightUp)">
<path id="path_thought" d="M 0 522
 C 1 522, 664 433, 664 433
 C 664 433, 244 624, 244 624
 C 244 624, 549 434, 550 434
 C 551 434, 766 791, 766 791
 C 766 791, 603 624, 603 624
 C 603 624, 552 542, 551 541
 C 550 540, 206 286, 206 286
 C 206 286, 315 748, 317 748
 C 319 748, 1023 518, 1024 518
">
</path>
</g>
<g id="will-src"
stroke="rgb(255,0,0)"
stroke-width="13"
fill="none"
stroke-linecap="round"
stroke-linejoin="round"
filter="url(#lightUp)">
<path id="path_will" d="M 0 517
 C 1 517, 654 441, 654 441
 C 654 441, 247 622, 247 622
 C 247 622, 547 440, 548 440
 C 549 440, 768 796, 768 796
 C 768 796, 603 627, 603 626
 C 603 625, 554 535, 553 534
 C 552 533, 202 295, 202 295
 C 202 295, 314 741, 316 741
 C 318 741, 1023 520, 1024 520
">
</path>
</g>
<g id="awa-src"
stroke="rgb(0,255,0)"
stroke-width="13"
fill="none"
stroke-linecap="round"
stroke-linejoin="round"
filter="url(#lightUp)">
<path id="path_awa" d="M 0 515
 C 1 515, 663 437, 663 437
 C 663 437, 247 627, 247 627
 C 247 627, 552 441, 553 441
 C 554 441, 768 796, 768 796
 C 768 796, 603 625, 603 624
 C 603 623, 550 535, 549 534
 C 548 533, 209 291, 209 291
 C 209 291, 317 749, 319 749
 C 321 749, 1023 519, 1024 519
">
</path>
</g>
<filter id="lightUp"
filterUnits="userSpaceOnUse"
x="-100%" y="-100%" width="200%" height="200%"
color-interpolation-filters="sRGB">

<feGaussianBlur in="SourceGraphic"
stdDeviation="30" 
result="blur">
</feGaussianBlur>

<feMerge>
<feMergeNode in="blur"/>
<feMergeNode in="blur"/>
<feMergeNode in="SourceGraphic"/>
</feMerge>
</filter> 
</defs>

<rect width='1024' height='1024' fill='#000'/>

  <g>
    <use href="#thought-src" style="mix-blend-mode:lighten;"/>
    <use href="#will-src" style="mix-blend-mode:lighten;"/>
    <use href="#awa-src" style="mix-blend-mode:lighten;"/>
  </g>


</svg>