<svg width="1024" height="1024" viewBox="0 0 1024 1024"
     xmlns="http://www.w3.org/2000/svg"
     style="background:#000; isolation:isolate">

<defs>
<g id="thought-src"
stroke="rgb(0,0,255)"
stroke-width="3"
fill="none"
stroke-linecap="round"
stroke-linejoin="round"
filter="url(#lightUp)">
<path id="path_thought" d="M 0 522
 C 11 522, 349 522, 362 522
 C 375 522, 406 512, 405 517
 C 404 522, 334 696, 341 695
 C 348 694, 630 482, 635 476
 C 640 470, 488 491, 488 493
 C 488 495, 628 558, 633 554
 C 638 550, 661 356, 656 351
 C 651 346, 479 376, 480 385
 C 481 394, 695 640, 691 641
 C 687 642, 358 429, 349 425
 C 340 421, 394 518, 399 522
 C 404 526, 499 543, 501 543
 C 503 543, 477 526, 474 521
 C 471 516, 419 398, 417 394
 C 415 390, 395 389, 396 388
 C 397 387, 442 370, 446 377
 C 450 384, 518 618, 524 623
 C 530 628, 635 543, 640 539
 C 645 535, 679 507, 677 509
 C 675 511, 586 593, 578 598
 C 570 603, 417 664, 415 666
 C 413 668, 508 655, 509 647
 C 510 639, 445 397, 445 397
 C 445 397, 497 645, 502 653
 C 507 661, 601 650, 607 645
 C 613 640, 707 481, 705 482
 C 703 483, 555 687, 550 692
 C 545 697, 557 642, 552 641
 C 547 640, 397 663, 395 657
 C 393 651, 469 456, 478 454
 C 487 452, 683 573, 680 578
 C 677 583, 373 608, 384 606
 C 395 604, 1004 519, 1024 516
">
</path>
</g>
<g id="will-src"
stroke="rgb(255,0,0)"
stroke-width="3"
fill="none"
stroke-linecap="round"
stroke-linejoin="round"
filter="url(#lightUp)">
<path id="path_will" d="M 0 522
 C 11 522, 351 512, 364 512
 C 377 512, 414 514, 413 520
 C 412 526, 326 697, 333 696
 C 340 695, 628 481, 633 475
 C 638 469, 491 492, 491 494
 C 491 496, 626 557, 631 552
 C 636 547, 658 352, 653 347
 C 648 342, 484 371, 485 380
 C 486 389, 689 632, 685 633
 C 681 634, 358 425, 349 422
 C 340 419, 389 526, 394 530
 C 399 534, 499 537, 502 537
 C 505 537, 484 530, 482 526
 C 480 522, 426 407, 423 403
 C 420 399, 396 388, 397 387
 C 398 386, 450 367, 454 375
 C 458 383, 516 626, 522 631
 C 528 636, 633 540, 638 536
 C 643 532, 679 505, 677 507
 C 675 509, 583 590, 575 595
 C 567 600, 419 665, 417 666
 C 415 667, 502 649, 503 641
 C 504 633, 449 401, 449 401
 C 449 401, 503 642, 508 650
 C 513 658, 606 652, 612 647
 C 618 642, 703 475, 701 477
 C 699 479, 548 690, 543 695
 C 538 700, 557 637, 552 636
 C 547 635, 398 667, 395 661
 C 392 655, 461 451, 470 448
 C 479 445, 677 569, 675 574
 C 673 579, 380 610, 391 608
 C 402 606, 1004 517, 1024 514
">
</path>
</g>
<g id="awa-src"
stroke="rgb(0,255,0)"
stroke-width="3"
fill="none"
stroke-linecap="round"
stroke-linejoin="round"
filter="url(#lightUp)">
<path id="path_awa" d="M 0 519
 C 11 519, 347 514, 360 514
 C 373 514, 411 511, 410 517
 C 409 523, 335 698, 342 697
 C 349 696, 634 483, 639 477
 C 644 471, 490 500, 490 502
 C 490 504, 628 559, 633 554
 C 638 549, 658 360, 653 355
 C 648 350, 481 370, 482 379
 C 483 388, 690 635, 686 636
 C 682 637, 360 423, 351 420
 C 342 417, 394 525, 399 529
 C 404 533, 494 544, 496 544
 C 498 544, 479 525, 477 520
 C 475 515, 429 403, 426 399
 C 423 395, 391 390, 392 389
 C 393 388, 445 374, 449 381
 C 453 388, 516 617, 522 622
 C 528 627, 631 545, 636 541
 C 641 537, 679 506, 677 508
 C 675 510, 587 598, 579 603
 C 571 608, 419 661, 417 662
 C 415 663, 506 650, 507 642
 C 508 634, 451 406, 451 406
 C 451 406, 502 646, 507 654
 C 512 662, 605 653, 611 647
 C 617 641, 698 474, 696 475
 C 694 476, 556 687, 551 692
 C 546 697, 552 643, 547 642
 C 542 641, 398 670, 396 664
 C 394 658, 469 454, 478 451
 C 487 448, 687 574, 684 579
 C 681 584, 380 614, 391 612
 C 402 610, 1004 519, 1024 516
">
</path>
</g>
<filter id="lightUp"
filterUnits="userSpaceOnUse"
x="-100%" y="-100%" width="200%" height="200%"
color-interpolation-filters="sRGB">

<feGaussianBlur in="SourceGraphic"
stdDeviation="30" 
result="blur">
</feGaussianBlur>

<feMerge>
<feMergeNode in="blur"/>
<feMergeNode in="blur"/>
<feMergeNode in="SourceGraphic"/>
</feMerge>
</filter> 
</defs>

<rect width='1024' height='1024' fill='#000'/>

  <g>
    <use href="#thought-src" style="mix-blend-mode:lighten;"/>
    <use href="#will-src" style="mix-blend-mode:lighten;"/>
    <use href="#awa-src" style="mix-blend-mode:lighten;"/>
  </g>


</svg>