<svg width="1024" height="1024" viewBox="0 0 1024 1024"
     xmlns="http://www.w3.org/2000/svg"
     style="background:#000; isolation:isolate">

<defs>
<g id="thought-src"
stroke="rgb(0,0,255)"
stroke-width="1"
fill="none"
stroke-linecap="round"
stroke-linejoin="round"
filter="url(#lightUp)">
<path id="path_thought" d="M 0 515
 C 1 515, 737 488, 738 488
 C 739 488, 359 446, 359 446
 C 359 446, 721 672, 721 672
 C 721 672, 499 334, 499 334
 C 499 334, 704 624, 704 624
 C 704 624, 294 428, 294 428
 C 294 428, 773 633, 773 633
 C 773 633, 530 665, 529 665
 C 528 665, 367 708, 367 708
 C 367 708, 482 645, 483 644
 C 484 643, 766 413, 766 413
 C 766 413, 265 677, 264 677
 C 263 677, 335 523, 335 523
 C 335 523, 466 483, 466 483
 C 466 483, 523 620, 523 620
 C 523 620, 305 274, 305 273
 C 305 272, 524 288, 524 289
 C 524 290, 349 722, 349 722
 C 349 722, 385 283, 385 283
 C 385 283, 599 590, 599 590
 C 599 590, 335 353, 335 353
 C 335 353, 570 474, 571 474
 C 572 474, 703 294, 702 294
 C 701 294, 312 304, 312 305
 C 312 306, 740 575, 741 575
 C 742 575, 652 516, 652 516
 C 652 516, 518 575, 518 575
 C 518 575, 641 700, 641 700
 C 641 700, 538 750, 538 750
 C 538 750, 561 460, 561 459
 C 561 458, 582 355, 582 355
 C 582 355, 728 446, 728 446
 C 728 446, 484 353, 484 354
 C 484 355, 480 726, 480 727
 C 480 728, 658 694, 658 693
 C 658 692, 424 301, 424 300
 C 424 299, 653 431, 654 432
 C 655 433, 693 712, 693 712
 C 693 712, 514 440, 513 440
 C 512 440, 421 477, 421 477
 C 421 477, 448 674, 448 674
 C 448 674, 657 618, 657 618
 C 657 618, 418 425, 418 425
 C 418 425, 501 480, 501 480
 C 501 480, 453 353, 453 353
 C 453 353, 351 352, 351 352
 C 351 352, 618 383, 618 383
 C 618 383, 392 499, 391 499
 C 390 499, 292 344, 293 344
 C 294 344, 683 511, 684 511
 C 685 511, 745 561, 744 561
 C 743 561, 388 430, 388 430
 C 388 430, 734 403, 734 403
 C 734 403, 624 508, 624 508
 C 624 508, 742 271, 742 271
 C 742 271, 768 692, 768 693
 C 768 694, 727 759, 727 759
 C 727 759, 575 489, 575 488
 C 575 487, 582 268, 582 268
 C 582 268, 595 332, 594 332
 C 593 332, 313 380, 313 381
 C 313 382, 716 706, 717 706
 C 718 706, 605 327, 604 327
 C 603 327, 369 626, 369 627
 C 369 628, 366 587, 366 587
 C 366 587, 378 570, 379 570
 C 380 570, 767 741, 767 741
 C 767 741, 281 530, 280 529
 C 279 528, 413 469, 413 469
 C 413 469, 278 539, 278 539
 C 278 539, 598 284, 598 284
 C 598 284, 275 695, 275 696
 C 275 697, 681 731, 681 730
 C 681 729, 323 413, 323 413
 C 323 413, 568 498, 569 498
 C 570 498, 750 287, 749 287
 C 748 287, 285 522, 285 523
 C 285 524, 552 646, 552 646
 C 552 646, 532 555, 532 554
 C 532 553, 656 320, 656 320
 C 656 320, 546 591, 545 591
 C 544 591, 353 516, 353 516
 C 353 516, 708 720, 708 720
 C 708 720, 350 764, 349 763
 C 348 762, 434 318, 434 318
 C 434 318, 467 561, 467 561
 C 467 561, 292 435, 292 435
 C 292 435, 592 752, 592 752
 C 592 752, 432 652, 432 651
 C 432 650, 480 272, 480 272
 C 480 272, 473 644, 473 644
 C 473 644, 672 379, 672 379
 C 672 379, 332 541, 332 541
 C 332 541, 419 527, 419 527
 C 419 527, 343 482, 343 482
 C 343 482, 619 692, 620 692
 C 621 692, 685 503, 685 502
 C 685 501, 526 308, 526 308
 C 526 308, 666 365, 666 366
 C 666 367, 599 742, 599 742
 C 599 742, 606 491, 606 490
 C 606 489, 641 469, 641 469
 C 641 469, 481 393, 481 393
 C 481 393, 682 285, 682 285
 C 682 285, 556 412, 556 412
 C 556 412, 534 305, 534 305
 C 534 305, 388 417, 388 417
 C 388 417, 324 473, 324 473
 C 324 473, 566 291, 567 291
 C 568 291, 754 363, 754 363
 C 754 363, 377 324, 376 324
 C 375 324, 304 277, 305 277
 C 306 277, 733 546, 733 547
 C 733 548, 382 712, 382 712
 C 382 712, 685 511, 685 510
 C 685 509, 324 271, 324 271
 C 324 271, 558 469, 558 469
 C 558 469, 278 395, 278 395
 C 278 395, 405 295, 405 295
 C 405 295, 301 371, 301 372
 C 301 373, 402 585, 403 586
 C 404 587, 572 751, 572 751
 C 572 751, 352 416, 352 416
 C 352 416, 435 522, 435 522
 C 435 522, 303 522, 303 522
 C 303 522, 630 270, 630 270
 C 630 270, 509 457, 509 457
 C 509 457, 498 434, 499 434
 C 500 434, 1023 512, 1024 512
">
</path>
</g>
<g id="will-src"
stroke="rgb(255,0,0)"
stroke-width="1"
fill="none"
stroke-linecap="round"
stroke-linejoin="round"
filter="url(#lightUp)">
<path id="path_will" d="M 0 515
 C 1 515, 741 492, 742 492
 C 743 492, 359 448, 359 448
 C 359 448, 729 670, 729 670
 C 729 670, 497 332, 497 332
 C 497 332, 700 624, 700 624
 C 700 624, 297 427, 297 427
 C 297 427, 763 632, 763 632
 C 763 632, 531 672, 530 672
 C 529 672, 371 712, 371 712
 C 371 712, 487 645, 488 644
 C 489 643, 763 415, 763 415
 C 763 415, 264 677, 263 677
 C 262 677, 338 524, 338 524
 C 338 524, 467 484, 467 484
 C 467 484, 525 615, 525 615
 C 525 615, 307 281, 307 280
 C 307 279, 527 289, 527 290
 C 527 291, 349 722, 349 722
 C 349 722, 385 291, 385 291
 C 385 291, 599 593, 599 593
 C 599 593, 332 352, 332 352
 C 332 352, 569 472, 570 472
 C 571 472, 699 302, 698 302
 C 697 302, 306 304, 306 305
 C 306 306, 735 575, 736 575
 C 737 575, 652 511, 652 511
 C 652 511, 520 574, 520 574
 C 520 574, 650 697, 650 697
 C 650 697, 546 758, 546 758
 C 546 758, 560 457, 560 456
 C 560 455, 590 352, 590 352
 C 590 352, 726 444, 726 444
 C 726 444, 490 351, 490 352
 C 490 353, 481 728, 481 729
 C 481 730, 656 693, 656 692
 C 656 691, 424 297, 424 296
 C 424 295, 662 428, 663 429
 C 664 430, 684 713, 684 713
 C 684 713, 513 436, 512 436
 C 511 436, 418 473, 418 473
 C 418 473, 457 680, 457 680
 C 457 680, 660 626, 660 625
 C 660 624, 414 424, 414 424
 C 414 424, 510 476, 510 476
 C 510 476, 456 354, 456 354
 C 456 354, 350 356, 350 356
 C 350 356, 620 388, 620 388
 C 620 388, 390 501, 389 501
 C 388 501, 291 353, 292 353
 C 293 353, 691 516, 692 516
 C 693 516, 746 566, 745 566
 C 744 566, 385 425, 385 425
 C 385 425, 735 404, 735 404
 C 735 404, 624 502, 624 502
 C 624 502, 736 270, 736 270
 C 736 270, 770 689, 770 690
 C 770 691, 730 766, 730 766
 C 730 766, 576 493, 576 492
 C 576 491, 591 272, 591 272
 C 591 272, 594 330, 593 330
 C 592 330, 314 380, 314 381
 C 314 382, 714 708, 715 708
 C 716 708, 609 330, 608 330
 C 607 330, 373 628, 373 628
 C 373 628, 357 579, 357 579
 C 357 579, 382 572, 383 572
 C 384 572, 764 735, 764 735
 C 764 735, 285 539, 284 538
 C 283 537, 411 465, 411 465
 C 411 465, 286 540, 286 540
 C 286 540, 601 283, 601 283
 C 601 283, 275 693, 275 694
 C 275 695, 690 732, 690 731
 C 690 730, 329 414, 329 414
 C 329 414, 569 508, 570 508
 C 571 508, 747 287, 746 287
 C 745 287, 292 520, 292 521
 C 292 522, 549 645, 549 645
 C 549 645, 529 548, 529 547
 C 529 546, 654 320, 654 320
 C 654 320, 540 589, 539 589
 C 538 589, 360 519, 360 519
 C 360 519, 715 719, 715 719
 C 715 719, 345 761, 344 760
 C 343 759, 433 319, 433 319
 C 433 319, 473 555, 473 555
 C 473 555, 292 429, 292 429
 C 292 429, 595 751, 595 751
 C 595 751, 432 661, 432 660
 C 432 659, 477 270, 477 270
 C 477 270, 470 649, 470 649
 C 470 649, 667 384, 667 384
 C 667 384, 324 540, 324 540
 C 324 540, 413 535, 413 535
 C 413 535, 341 484, 341 484
 C 341 484, 620 684, 621 684
 C 622 684, 693 503, 693 502
 C 693 501, 526 305, 526 305
 C 526 305, 672 370, 672 371
 C 672 372, 600 748, 600 748
 C 600 748, 608 494, 608 493
 C 608 492, 640 468, 640 468
 C 640 468, 482 393, 482 393
 C 482 393, 683 285, 683 285
 C 683 285, 553 406, 553 406
 C 553 406, 534 301, 534 301
 C 534 301, 388 425, 388 425
 C 388 425, 332 480, 332 480
 C 332 480, 560 291, 561 291
 C 562 291, 761 363, 761 363
 C 761 363, 374 326, 373 326
 C 372 326, 303 283, 304 283
 C 305 283, 733 540, 733 541
 C 733 542, 385 703, 385 703
 C 385 703, 680 519, 680 518
 C 680 517, 325 271, 325 271
 C 325 271, 557 468, 557 468
 C 557 468, 274 397, 274 397
 C 274 397, 412 295, 412 295
 C 412 295, 303 370, 303 371
 C 303 372, 404 576, 405 577
 C 406 578, 569 754, 569 754
 C 569 754, 351 416, 351 416
 C 351 416, 437 525, 437 525
 C 437 525, 306 528, 306 528
 C 306 528, 628 279, 628 279
 C 628 279, 519 460, 519 460
 C 519 460, 496 443, 497 443
 C 498 443, 1023 515, 1024 515
">
</path>
</g>
<g id="awa-src"
stroke="rgb(0,255,0)"
stroke-width="1"
fill="none"
stroke-linecap="round"
stroke-linejoin="round"
filter="url(#lightUp)">
<path id="path_awa" d="M 0 514
 C 1 514, 735 496, 736 496
 C 737 496, 358 454, 358 454
 C 358 454, 729 668, 729 668
 C 729 668, 496 332, 496 332
 C 496 332, 704 623, 704 623
 C 704 623, 296 427, 296 427
 C 296 427, 770 640, 770 640
 C 770 640, 526 675, 525 675
 C 524 675, 361 707, 361 707
 C 361 707, 490 646, 491 645
 C 492 644, 765 413, 765 413
 C 765 413, 263 677, 262 677
 C 261 677, 334 520, 334 520
 C 334 520, 468 493, 468 493
 C 468 493, 522 613, 522 613
 C 522 613, 301 282, 301 281
 C 301 280, 529 283, 529 284
 C 529 285, 354 722, 354 722
 C 354 722, 376 288, 376 288
 C 376 288, 596 592, 596 592
 C 596 592, 336 355, 336 355
 C 336 355, 568 466, 569 466
 C 570 466, 700 295, 699 295
 C 698 295, 311 307, 311 308
 C 311 309, 735 571, 736 571
 C 737 571, 655 511, 655 511
 C 655 511, 519 573, 519 573
 C 519 573, 643 701, 643 701
 C 643 701, 547 748, 547 748
 C 547 748, 565 462, 565 461
 C 565 460, 586 356, 586 356
 C 586 356, 731 441, 731 441
 C 731 441, 485 350, 485 351
 C 485 352, 486 730, 486 731
 C 486 732, 659 696, 659 695
 C 659 694, 417 296, 417 295
 C 417 294, 652 432, 653 433
 C 654 434, 691 707, 691 707
 C 691 707, 519 442, 518 442
 C 517 442, 428 471, 428 471
 C 428 471, 454 675, 454 675
 C 454 675, 656 625, 656 625
 C 656 625, 419 422, 419 422
 C 419 422, 506 472, 506 472
 C 506 472, 453 347, 453 347
 C 453 347, 356 355, 356 355
 C 356 355, 626 380, 626 380
 C 626 380, 388 506, 387 506
 C 386 506, 285 344, 286 344
 C 287 344, 685 510, 686 510
 C 687 510, 745 570, 744 570
 C 743 570, 383 426, 383 426
 C 383 426, 742 399, 742 399
 C 742 399, 628 508, 628 508
 C 628 508, 740 264, 740 264
 C 740 264, 762 691, 762 692
 C 762 693, 726 764, 726 764
 C 726 764, 579 490, 579 489
 C 579 488, 585 268, 585 268
 C 585 268, 602 331, 601 331
 C 600 331, 313 376, 313 377
 C 313 378, 716 700, 717 700
 C 718 700, 608 334, 607 334
 C 606 334, 366 629, 366 629
 C 366 629, 356 579, 356 579
 C 356 579, 379 571, 380 571
 C 381 571, 767 738, 767 738
 C 767 738, 285 539, 284 538
 C 283 537, 403 463, 403 463
 C 403 463, 278 542, 278 542
 C 278 542, 601 283, 601 283
 C 601 283, 278 697, 278 698
 C 278 699, 687 731, 687 730
 C 687 729, 333 415, 333 415
 C 333 415, 560 505, 561 505
 C 562 505, 750 294, 749 294
 C 748 294, 292 516, 292 517
 C 292 518, 548 644, 548 644
 C 548 644, 532 546, 532 545
 C 532 544, 649 317, 649 317
 C 649 317, 536 589, 535 589
 C 534 589, 357 514, 357 514
 C 357 514, 715 719, 715 719
 C 715 719, 350 758, 349 757
 C 348 756, 435 320, 435 320
 C 435 320, 470 558, 470 558
 C 470 558, 292 429, 292 429
 C 292 429, 596 758, 596 758
 C 596 758, 434 655, 434 654
 C 434 653, 479 272, 479 272
 C 479 272, 473 649, 473 649
 C 473 649, 674 382, 674 382
 C 674 382, 327 546, 326 546
 C 325 546, 413 532, 413 532
 C 413 532, 344 481, 344 481
 C 344 481, 614 692, 615 692
 C 616 692, 692 499, 692 498
 C 692 497, 527 305, 527 305
 C 527 305, 666 374, 666 375
 C 666 376, 601 744, 601 744
 C 601 744, 605 485, 605 484
 C 605 483, 631 475, 631 475
 C 631 475, 477 402, 477 402
 C 477 402, 688 286, 688 286
 C 688 286, 550 414, 550 414
 C 550 414, 529 305, 529 305
 C 529 305, 386 419, 386 419
 C 386 419, 331 472, 331 472
 C 331 472, 558 297, 559 297
 C 560 297, 761 360, 761 360
 C 761 360, 381 326, 380 326
 C 379 326, 297 284, 298 284
 C 299 284, 724 540, 724 541
 C 724 542, 381 712, 381 712
 C 381 712, 686 519, 686 518
 C 686 517, 327 279, 327 279
 C 327 279, 561 471, 561 471
 C 561 471, 275 396, 275 396
 C 275 396, 414 295, 414 295
 C 414 295, 299 368, 299 369
 C 299 370, 408 581, 409 582
 C 410 583, 567 757, 567 757
 C 567 757, 352 413, 352 413
 C 352 413, 445 526, 445 526
 C 445 526, 305 527, 305 527
 C 305 527, 633 277, 633 277
 C 633 277, 518 460, 518 460
 C 518 460, 498 436, 499 436
 C 500 436, 1023 514, 1024 514
">
</path>
</g>
<filter id="lightUp"
filterUnits="userSpaceOnUse"
x="-100%" y="-100%" width="200%" height="200%"
color-interpolation-filters="sRGB">

<feGaussianBlur in="SourceGraphic"
stdDeviation="30" 
result="blur">
</feGaussianBlur>

<feMerge>
<feMergeNode in="blur"/>
<feMergeNode in="blur"/>
<feMergeNode in="SourceGraphic"/>
</feMerge>
</filter> 
</defs>

<rect width='1024' height='1024' fill='#000'/>

  <g>
    <use href="#thought-src" style="mix-blend-mode:lighten;"/>
    <use href="#will-src" style="mix-blend-mode:lighten;"/>
    <use href="#awa-src" style="mix-blend-mode:lighten;"/>
  </g>


</svg>