<svg width="1024" height="1024" viewBox="0 0 1024 1024"
     xmlns="http://www.w3.org/2000/svg"
     style="background:#000; isolation:isolate">

<defs>
<g id="thought-src"
stroke="rgb(0,0,255)"
stroke-width="6"
fill="none"
stroke-linecap="round"
stroke-linejoin="round"
filter="url(#lightUp)">
<path id="path_thought" d="M 515 1024
 C 516 1023, 776 740, 776 739
 C 776 738, 709 493, 709 492
 C 709 491, 622 251, 622 251
 C 622 251, 731 574, 730 575
 C 729 576, 237 572, 236 572
 C 235 572, 256 483, 257 483
 C 258 483, 507 563, 508 563
 C 509 563, 674 272, 674 272
 C 674 272, 478 328, 478 329
 C 478 330, 753 602, 753 602
 C 753 602, 468 380, 468 380
 C 468 380, 544 654, 544 654
 C 544 654, 704 294, 704 294
 C 704 294, 595 577, 595 577
 C 595 577, 608 474, 608 473
 C 608 472, 580 310, 580 309
 C 580 308, 512 1, 512 0
">
</path>
</g>
<g id="will-src"
stroke="rgb(255,0,0)"
stroke-width="6"
fill="none"
stroke-linecap="round"
stroke-linejoin="round"
filter="url(#lightUp)">
<path id="path_will" d="M 521 1024
 C 522 1023, 778 749, 778 748
 C 778 747, 717 501, 717 500
 C 717 499, 621 257, 621 257
 C 621 257, 731 577, 730 578
 C 729 579, 241 575, 240 575
 C 239 575, 251 477, 252 477
 C 253 477, 508 563, 509 563
 C 510 563, 673 269, 673 269
 C 673 269, 473 329, 473 330
 C 473 331, 751 601, 751 601
 C 751 601, 461 387, 461 387
 C 461 387, 535 655, 535 655
 C 535 655, 705 296, 705 296
 C 705 296, 595 584, 595 584
 C 595 584, 609 480, 609 479
 C 609 478, 580 309, 580 308
 C 580 307, 520 1, 520 0
">
</path>
</g>
<g id="awa-src"
stroke="rgb(0,255,0)"
stroke-width="6"
fill="none"
stroke-linecap="round"
stroke-linejoin="round"
filter="url(#lightUp)">
<path id="path_awa" d="M 517 1024
 C 518 1023, 773 748, 773 747
 C 773 746, 710 493, 710 492
 C 710 491, 625 257, 625 257
 C 625 257, 737 579, 736 580
 C 735 581, 242 577, 241 577
 C 240 577, 248 481, 249 481
 C 250 481, 501 563, 502 563
 C 503 563, 683 271, 683 271
 C 683 271, 478 333, 478 334
 C 478 335, 752 606, 752 606
 C 752 606, 462 381, 462 381
 C 462 381, 542 655, 542 655
 C 542 655, 713 298, 713 298
 C 713 298, 596 576, 596 576
 C 596 576, 613 474, 613 473
 C 613 472, 579 304, 579 303
 C 579 302, 521 1, 521 0
">
</path>
</g>
<filter id="lightUp"
filterUnits="userSpaceOnUse"
x="-100%" y="-100%" width="200%" height="200%"
color-interpolation-filters="sRGB">

<feGaussianBlur in="SourceGraphic"
stdDeviation="30" 
result="blur">
</feGaussianBlur>

<feMerge>
<feMergeNode in="blur"/>
<feMergeNode in="blur"/>
<feMergeNode in="SourceGraphic"/>
</feMerge>
</filter> 
</defs>

<rect width='1024' height='1024' fill='#000'/>

  <g>
    <use href="#thought-src" style="mix-blend-mode:lighten;"/>
    <use href="#will-src" style="mix-blend-mode:lighten;"/>
    <use href="#awa-src" style="mix-blend-mode:lighten;"/>
  </g>


</svg>