<svg width="1024" height="1024" viewBox="0 0 1024 1024"
     xmlns="http://www.w3.org/2000/svg"
     style="background:#000; isolation:isolate">

<defs>
<g id="thought-src"
stroke="rgb(0,0,255)"
stroke-width="1"
fill="none"
stroke-linecap="round"
stroke-linejoin="round"
filter="url(#lightUp)">
<path id="path_thought" d="M 0 518
 C 159 398, -42 198, 317 279
 C 676 360, 575 503, 717 680
 C 859 857, 706 692, 600 633
 C 494 574, 539 642, 505 563
 C 471 484, 440 507, 533 476
 C 626 445, 714 373, 691 502
 C 668 631, 546 717, 487 734
 C 428 751, 604 754, 574 536
 C 544 318, 529 328, 427 298
 C 325 268, 397 246, 370 477
 C 343 708, 300 731, 373 759
 C 446 787, 567 691, 515 533
 C 463 375, 318 506, 269 444
 C 220 382, 355 398, 418 409
 C 481 420, 458 378, 395 465
 C 332 552, 205 581, 292 582
 C 379 583, 542 604, 568 466
 C 594 328, 479 379, 344 307
 C 209 235, 135 137, 299 323
 C 463 509, 555 660, 671 679
 C 787 698, 557 448, 531 361
 C 505 274, 506 310, 619 505
 C 732 700, 777 754, 756 750
 C 735 746, 706 692, 577 497
 C 448 302, 611 376, 498 360
 C 385 344, 286 323, 351 466
 C 416 609, 616 586, 628 646
 C 640 706, 354 556, 375 586
 C 396 616, 563 830, 669 705
 C 775 580, 698 488, 587 336
 C 476 184, 582 375, 448 402
 C 314 429, 223 445, 319 390
 C 415 335, 432 289, 640 292
 C 848 295, 879 405, 735 396
 C 591 387, 480 156, 352 274
 C 224 392, 481 410, 479 632
 C 477 854, 445 770, 349 718
 C 253 666, 185 702, 288 528
 C 391 354, 544 331, 555 370
 C 566 409, 400 519, 310 605
 C 220 691, 157 627, 375 542
 C 593 457, 758 477, 745 436
 C 732 395, 470 422, 349 461
 C 228 500, 303 507, 503 514
 C 703 521, 759 364, 749 475
 C 739 586, 635 616, 484 736
 C 333 856, 551 870, 447 715
 C 343 560, 139 577, 277 426
 C 415 275, 519 306, 722 413
 C 925 520, 845 513, 683 639
 C 521 765, 489 736, 399 664
 C 309 592, 396 513, 504 495
 C 612 477, 704 532, 614 628
 C 524 724, 270 715, 325 686
 C 380 657, 520 770, 724 570
 C 928 370, 859 300, 733 286
 C 607 272, 599 405, 473 543
 C 347 681, 370 612, 482 562
 C 594 512, 704 394, 696 443
 C 688 492, 585 597, 467 659
 C 349 721, 428 518, 460 566
 C 492 614, 409 744, 531 754
 C 653 764, 633 625, 704 586
 C 775 547, 686 716, 673 676
 C 660 636, 638 709, 679 507
 C 720 305, 792 392, 754 273
 C 716 154, 719 223, 603 270
 C 487 317, 569 147, 523 366
 C 477 585, 432 659, 511 708
 C 590 757, 721 573, 680 463
 C 639 353, 410 471, 429 488
 C 448 505, 632 506, 717 497
 C 802 488, 694 508, 599 471
 C 504 434, 555 362, 528 424
 C 501 486, 447 446, 546 594
 C 645 742, 736 672, 725 719
 C 714 766, 619 716, 525 688
 C 431 660, 658 834, 538 664
 C 418 494, 320 524, 285 349
 C 250 174, 248 189, 469 315
 C 690 441, 625 526, 727 601
 C 829 676, 760 495, 672 465
 C 584 435, 551 552, 552 541
 C 553 530, 699 486, 674 444
 C 649 402, 678 392, 502 457
 C 326 522, 406 648, 322 573
 C 238 498, 170 458, 335 307
 C 500 156, 452 213, 651 272
 C 850 331, 876 216, 732 424
 C 588 632, 347 533, 363 688
 C 379 843, 766 804, 764 733
 C 762 662, 407 532, 359 547
 C 311 562, 612 808, 668 763
 C 724 718, 669 570, 470 457
 C 271 344, 220 442, 270 538
 C 320 634, 355 545, 569 648
 C 783 751, 766 733, 698 743
 C 630 753, 433 891, 434 668
 C 435 445, 702 396, 699 297
 C 696 198, 493 382, 428 470
 C 363 558, 627 446, 570 472
 C 513 498, 336 404, 314 521
 C 292 638, 320 808, 527 706
 C 734 604, 700 339, 727 317
 C 754 295, 574 685, 581 662
 C 588 639, 898 268, 740 272
 C 582 276, 304 646, 266 669
 C 228 692, 418 445, 664 318
 C 910 191, 759 386, 757 415
 C 755 444, 772 348, 661 376
 C 550 404, 714 409, 536 470
 C 358 531, 414 473, 305 497
 C 196 521, 198 611, 318 518
 C 438 425, 382 323, 545 311
 C 708 299, 757 442, 644 494
 C 531 546, 371 356, 320 414
 C 269 472, 451 647, 542 609
 C 633 571, 509 286, 501 339
 C 493 392, 526 578, 527 714
 C 528 850, 529 827, 502 610
 C 475 393, 481 304, 473 281
 C 465 258, 398 554, 486 564
 C 574 574, 742 220, 648 300
 C 554 380, 454 733, 299 723
 C 144 713, 269 314, 339 281
 C 409 248, 455 647, 438 657
 C 421 667, 378 262, 305 301
 C 232 340, -68 625, 292 734
 C 652 843, 658 626, 1024 518
">
</path>
</g>
<g id="will-src"
stroke="rgb(255,0,0)"
stroke-width="1"
fill="none"
stroke-linecap="round"
stroke-linejoin="round"
filter="url(#lightUp)">
<path id="path_will" d="M 0 521
 C 163 398, -34 198, 326 275
 C 686 352, 583 491, 719 674
 C 855 857, 706 694, 598 641
 C 490 588, 534 652, 503 568
 C 472 484, 442 507, 537 473
 C 632 439, 713 373, 693 500
 C 673 627, 554 710, 497 726
 C 440 742, 618 746, 580 532
 C 542 318, 524 326, 422 298
 C 320 270, 401 245, 376 476
 C 351 707, 305 732, 372 759
 C 439 786, 558 691, 510 529
 C 462 367, 324 497, 276 436
 C 228 375, 355 394, 415 408
 C 475 422, 456 379, 396 464
 C 336 549, 210 581, 296 578
 C 382 575, 538 592, 567 458
 C 596 324, 488 381, 353 311
 C 218 241, 138 139, 297 318
 C 456 497, 553 650, 671 669
 C 789 688, 558 440, 532 356
 C 506 272, 510 302, 619 502
 C 728 702, 772 755, 750 755
 C 728 755, 703 700, 575 502
 C 447 304, 610 379, 495 360
 C 380 341, 277 319, 345 464
 C 413 609, 613 587, 630 649
 C 647 711, 357 563, 378 588
 C 399 613, 570 829, 671 699
 C 772 569, 693 478, 579 329
 C 465 180, 572 370, 444 402
 C 316 434, 224 447, 323 392
 C 422 337, 431 289, 641 292
 C 851 295, 886 408, 742 397
 C 598 386, 487 152, 353 270
 C 219 388, 478 406, 474 632
 C 470 858, 440 774, 346 722
 C 252 670, 182 707, 287 528
 C 392 349, 540 324, 556 365
 C 572 406, 412 520, 319 610
 C 226 700, 160 629, 371 544
 C 582 459, 749 480, 740 440
 C 731 400, 470 427, 354 464
 C 238 501, 308 502, 509 513
 C 710 524, 772 371, 755 485
 C 738 599, 632 626, 475 741
 C 318 856, 543 869, 442 714
 C 341 559, 134 581, 274 432
 C 414 283, 515 317, 722 417
 C 929 517, 848 508, 688 632
 C 528 756, 498 733, 403 665
 C 308 597, 394 511, 499 496
 C 604 481, 702 539, 613 635
 C 524 731, 267 720, 321 688
 C 375 656, 515 777, 721 571
 C 927 365, 857 286, 732 276
 C 607 266, 597 404, 471 551
 C 345 698, 369 625, 480 569
 C 591 513, 704 397, 693 440
 C 682 483, 573 594, 458 654
 C 343 714, 425 507, 463 560
 C 501 613, 416 746, 534 760
 C 652 774, 626 630, 699 588
 C 772 546, 690 717, 679 676
 C 668 635, 640 708, 678 506
 C 716 304, 794 390, 755 272
 C 716 154, 720 220, 600 270
 C 480 320, 561 148, 515 371
 C 469 594, 430 672, 508 716
 C 586 760, 709 575, 671 458
 C 633 341, 409 463, 433 483
 C 457 503, 635 502, 718 498
 C 801 494, 690 508, 598 475
 C 506 442, 558 376, 534 433
 C 510 490, 451 448, 551 589
 C 651 730, 743 667, 733 715
 C 723 763, 630 712, 531 685
 C 432 658, 655 829, 536 661
 C 417 493, 326 522, 294 349
 C 262 176, 254 187, 472 315
 C 690 443, 628 531, 729 604
 C 830 677, 762 492, 674 461
 C 586 430, 552 555, 553 543
 C 554 531, 702 478, 675 438
 C 648 398, 675 393, 500 463
 C 325 533, 405 655, 326 577
 C 247 499, 182 459, 342 307
 C 502 155, 450 219, 646 273
 C 842 327, 879 206, 734 415
 C 589 624, 347 535, 357 690
 C 367 845, 756 797, 754 725
 C 752 653, 400 529, 354 547
 C 308 565, 603 806, 662 761
 C 721 716, 670 572, 471 457
 C 272 342, 210 437, 264 532
 C 318 627, 362 539, 579 647
 C 796 755, 772 737, 698 747
 C 624 757, 430 895, 432 666
 C 434 437, 702 387, 701 289
 C 700 191, 497 377, 430 470
 C 363 563, 631 449, 568 474
 C 505 499, 322 403, 305 519
 C 288 635, 326 806, 535 706
 C 744 606, 699 341, 723 320
 C 747 299, 571 688, 583 664
 C 595 640, 907 274, 746 273
 C 585 272, 307 640, 262 663
 C 217 686, 406 443, 656 318
 C 906 193, 760 380, 762 413
 C 764 446, 774 359, 659 383
 C 544 407, 708 402, 533 461
 C 358 520, 415 471, 309 501
 C 203 531, 208 614, 322 521
 C 436 428, 374 331, 537 316
 C 700 301, 756 438, 647 492
 C 538 546, 373 363, 319 423
 C 265 483, 448 659, 540 612
 C 632 565, 513 276, 502 330
 C 491 384, 520 584, 519 719
 C 518 854, 525 819, 500 600
 C 475 381, 481 301, 470 281
 C 459 261, 384 552, 478 561
 C 572 570, 746 219, 657 299
 C 568 379, 458 729, 300 721
 C 142 713, 269 316, 341 283
 C 413 250, 464 642, 443 656
 C 422 670, 375 270, 299 310
 C 223 350, -72 630, 291 735
 C 654 840, 657 627, 1024 519
">
</path>
</g>
<g id="awa-src"
stroke="rgb(0,255,0)"
stroke-width="1"
fill="none"
stroke-linecap="round"
stroke-linejoin="round"
filter="url(#lightUp)">
<path id="path_awa" d="M 0 512
 C 161 396, -34 196, 321 280
 C 676 364, 570 499, 709 679
 C 848 859, 703 696, 599 639
 C 495 582, 534 648, 501 565
 C 468 482, 437 508, 534 474
 C 631 440, 715 369, 694 497
 C 673 625, 553 708, 493 729
 C 433 750, 607 751, 574 538
 C 541 325, 529 336, 428 303
 C 327 270, 404 243, 373 472
 C 342 701, 297 730, 367 761
 C 437 792, 561 697, 512 534
 C 463 371, 320 501, 270 436
 C 220 371, 347 390, 413 405
 C 479 420, 464 377, 402 465
 C 340 553, 210 583, 290 580
 C 370 577, 534 597, 561 460
 C 588 323, 473 376, 343 307
 C 213 238, 132 137, 301 323
 C 470 509, 563 664, 680 679
 C 797 694, 563 440, 534 352
 C 505 264, 512 300, 622 503
 C 732 706, 776 758, 754 757
 C 732 756, 710 701, 578 502
 C 446 303, 604 380, 491 360
 C 378 340, 286 318, 352 462
 C 418 606, 612 585, 622 647
 C 632 709, 346 558, 372 586
 C 398 614, 567 828, 674 703
 C 781 578, 700 483, 586 336
 C 472 189, 579 383, 446 409
 C 313 435, 225 445, 321 387
 C 417 329, 431 286, 638 293
 C 845 300, 874 409, 734 400
 C 594 391, 486 158, 358 275
 C 230 392, 485 410, 478 634
 C 471 858, 439 775, 344 723
 C 249 671, 184 709, 288 531
 C 392 353, 538 329, 552 368
 C 566 407, 402 520, 316 609
 C 230 698, 166 631, 381 546
 C 596 461, 757 480, 745 439
 C 733 398, 474 427, 357 465
 C 240 503, 315 505, 511 514
 C 707 523, 762 370, 748 483
 C 734 596, 633 627, 483 740
 C 333 853, 552 865, 449 708
 C 346 551, 141 574, 278 427
 C 415 280, 520 311, 723 414
 C 926 517, 845 503, 684 633
 C 523 763, 495 742, 401 673
 C 307 604, 392 513, 497 495
 C 602 477, 699 539, 611 638
 C 523 737, 263 722, 322 692
 C 381 662, 525 786, 728 578
 C 931 370, 858 294, 727 276
 C 596 258, 585 400, 466 543
 C 347 686, 375 614, 489 561
 C 603 508, 709 392, 694 437
 C 679 482, 575 589, 459 650
 C 343 711, 426 508, 462 559
 C 498 610, 409 736, 531 752
 C 653 768, 630 628, 705 590
 C 780 552, 692 715, 681 677
 C 670 639, 645 717, 683 515
 C 721 313, 797 395, 756 274
 C 715 153, 721 229, 602 274
 C 483 319, 567 144, 519 364
 C 471 584, 431 665, 507 713
 C 583 761, 708 576, 671 459
 C 634 342, 410 461, 434 479
 C 458 497, 639 499, 718 495
 C 797 491, 683 503, 592 472
 C 501 441, 557 376, 536 434
 C 515 492, 451 445, 550 588
 C 649 731, 745 674, 733 719
 C 721 764, 627 708, 527 678
 C 427 648, 655 820, 534 659
 C 413 498, 319 531, 286 356
 C 253 181, 243 185, 468 309
 C 693 433, 635 529, 736 603
 C 837 677, 760 485, 669 457
 C 578 429, 553 553, 555 547
 C 557 541, 698 491, 673 446
 C 648 401, 679 392, 505 457
 C 331 522, 411 654, 326 575
 C 241 496, 177 450, 336 299
 C 495 148, 443 215, 644 274
 C 845 333, 882 208, 738 417
 C 594 626, 345 538, 357 692
 C 369 846, 761 798, 762 724
 C 763 650, 406 527, 359 544
 C 312 561, 610 799, 669 758
 C 728 717, 677 577, 476 463
 C 275 349, 219 439, 267 531
 C 315 623, 352 536, 571 647
 C 790 758, 778 741, 705 752
 C 632 763, 428 897, 425 668
 C 422 439, 701 393, 699 294
 C 697 195, 485 380, 421 471
 C 357 562, 630 451, 572 476
 C 514 501, 323 408, 305 521
 C 287 634, 326 803, 536 702
 C 746 601, 706 340, 725 319
 C 744 298, 566 681, 574 660
 C 582 639, 896 273, 740 278
 C 584 283, 304 653, 262 670
 C 220 687, 411 439, 657 311
 C 903 183, 750 377, 753 414
 C 756 451, 770 356, 662 384
 C 554 412, 716 413, 537 469
 C 358 525, 412 469, 305 495
 C 198 521, 202 608, 323 521
 C 444 434, 387 338, 546 321
 C 705 304, 752 438, 641 487
 C 530 536, 373 353, 325 419
 C 277 485, 459 661, 546 619
 C 633 577, 512 287, 499 336
 C 486 385, 517 584, 521 717
 C 525 850, 530 822, 506 601
 C 482 380, 487 295, 473 275
 C 459 255, 387 550, 479 561
 C 571 572, 747 215, 656 296
 C 565 377, 454 727, 298 722
 C 142 717, 270 317, 345 286
 C 420 255, 469 648, 448 660
 C 427 672, 384 275, 303 310
 C 222 345, -74 627, 287 730
 C 648 833, 655 623, 1024 516
">
</path>
</g>
<filter id="lightUp"
filterUnits="userSpaceOnUse"
x="-100%" y="-100%" width="200%" height="200%"
color-interpolation-filters="sRGB">

<feGaussianBlur in="SourceGraphic"
stdDeviation="30" 
result="blur">
</feGaussianBlur>

<feMerge>
<feMergeNode in="blur"/>
<feMergeNode in="blur"/>
<feMergeNode in="SourceGraphic"/>
</feMerge>
</filter> 
</defs>

<rect width='1024' height='1024' fill='#000'/>

  <g>
    <use href="#thought-src" style="mix-blend-mode:lighten;"/>
    <use href="#will-src" style="mix-blend-mode:lighten;"/>
    <use href="#awa-src" style="mix-blend-mode:lighten;"/>
  </g>


</svg>