<svg width="1024" height="1024" viewBox="0 0 1024 1024"
     xmlns="http://www.w3.org/2000/svg"
     style="background:#000; isolation:isolate">

<defs>
<g id="thought-src"
stroke="rgb(0,0,255)"
stroke-width="2"
fill="none"
stroke-linecap="round"
stroke-linejoin="round"
filter="url(#lightUp)">
<path id="path_thought" d="M 0 513
 C 20 521, 630 773, 655 780
 C 680 787, 801 727, 796 721
 C 791 715, 487 602, 480 595
 C 473 588, 563 511, 558 510
 C 553 509, 313 571, 311 574
 C 309 577, 468 597, 479 593
 C 490 589, 659 445, 656 444
 C 653 443, 402 570, 394 565
 C 386 560, 393 263, 397 269
 C 401 275, 528 736, 529 744
 C 530 752, 445 513, 444 511
 C 443 509, 487 678, 482 672
 C 477 666, 299 327, 298 318
 C 297 309, 456 384, 457 394
 C 458 404, 345 628, 342 633
 C 339 638, 344 544, 349 541
 C 354 538, 501 547, 504 549
 C 507 551, 450 610, 446 612
 C 442 614, 360 627, 371 626
 C 382 625, 778 574, 790 579
 C 802 584, 770 787, 756 786
 C 742 785, 351 560, 335 555
 C 319 550, 259 611, 259 611
 C 259 611, 340 553, 342 547
 C 344 541, 322 421, 334 428
 C 346 435, 720 760, 718 769
 C 716 778, 270 721, 267 711
 C 264 701, 619 449, 633 441
 C 647 433, 714 443, 719 454
 C 724 465, 792 782, 794 792
 C 796 802, 784 777, 771 768
 C 758 759, 394 516, 383 503
 C 372 490, 401 332, 407 340
 C 413 348, 584 759, 584 761
 C 584 763, 391 395, 393 389
 C 395 383, 640 575, 645 572
 C 650 569, 550 306, 551 301
 C 552 296, 684 414, 690 418
 C 696 422, 738 437, 739 436
 C 740 435, 720 373, 718 383
 C 716 393, 686 753, 672 757
 C 658 761, 258 523, 258 516
 C 258 509, 666 527, 674 524
 C 682 521, 516 432, 518 430
 C 520 428, 756 473, 750 470
 C 744 467, 331 336, 319 334
 C 307 332, 352 379, 354 391
 C 356 403, 381 717, 391 726
 C 401 735, 682 672, 677 664
 C 672 656, 238 487, 238 484
 C 238 481, 663 563, 664 573
 C 665 583, 279 798, 271 789
 C 263 780, 395 284, 405 279
 C 415 274, 581 625, 588 632
 C 595 639, 649 511, 642 505
 C 635 499, 351 428, 352 427
 C 353 426, 678 447, 676 459
 C 674 471, 292 795, 288 803
 C 284 811, 548 731, 550 723
 C 552 715, 350 571, 347 558
 C 344 545, 437 290, 442 295
 C 447 300, 507 721, 514 721
 C 521 721, 678 313, 676 301
 C 674 289, 447 315, 458 322
 C 469 329, 1006 516, 1024 522
">
</path>
</g>
<g id="will-src"
stroke="rgb(255,0,0)"
stroke-width="2"
fill="none"
stroke-linecap="round"
stroke-linejoin="round"
filter="url(#lightUp)">
<path id="path_will" d="M 0 518
 C 20 526, 625 766, 650 772
 C 675 778, 806 727, 801 721
 C 796 715, 488 602, 481 596
 C 474 590, 569 516, 564 515
 C 559 514, 310 571, 307 573
 C 304 575, 473 597, 484 593
 C 495 589, 661 438, 658 437
 C 655 436, 407 573, 399 568
 C 391 563, 388 261, 392 267
 C 396 273, 531 739, 533 746
 C 535 753, 442 508, 440 506
 C 438 504, 484 688, 480 682
 C 476 676, 300 325, 299 316
 C 298 307, 455 381, 457 391
 C 459 401, 352 631, 348 636
 C 344 641, 337 544, 342 541
 C 347 538, 501 546, 504 548
 C 507 550, 454 606, 450 608
 C 446 610, 362 624, 373 623
 C 384 622, 779 568, 791 573
 C 803 578, 767 780, 753 779
 C 739 778, 351 556, 336 551
 C 321 546, 261 611, 261 611
 C 261 611, 337 559, 339 553
 C 341 547, 321 428, 333 435
 C 345 442, 720 759, 718 768
 C 716 777, 280 718, 277 708
 C 274 698, 616 449, 630 441
 C 644 433, 721 445, 726 456
 C 731 467, 791 780, 793 790
 C 795 800, 787 769, 774 760
 C 761 751, 389 517, 377 504
 C 365 491, 397 329, 403 337
 C 409 345, 579 760, 579 762
 C 579 764, 388 402, 390 396
 C 392 390, 638 569, 643 566
 C 648 563, 550 308, 552 303
 C 554 298, 686 418, 692 422
 C 698 426, 739 429, 740 428
 C 741 427, 722 367, 720 377
 C 718 387, 684 758, 669 762
 C 654 766, 254 521, 254 514
 C 254 507, 670 536, 678 533
 C 686 530, 508 431, 510 429
 C 512 427, 751 475, 745 472
 C 739 469, 338 334, 326 332
 C 314 330, 355 380, 357 393
 C 359 406, 388 724, 398 732
 C 408 740, 679 672, 674 664
 C 669 656, 237 487, 237 484
 C 237 481, 666 569, 667 579
 C 668 589, 277 805, 269 796
 C 261 787, 396 286, 406 281
 C 416 276, 577 628, 584 635
 C 591 642, 648 516, 641 509
 C 634 502, 351 427, 352 426
 C 353 425, 682 451, 680 463
 C 678 475, 291 787, 287 795
 C 283 803, 548 728, 550 721
 C 552 714, 358 577, 355 564
 C 352 551, 441 299, 446 304
 C 451 309, 513 726, 520 726
 C 527 726, 682 314, 680 302
 C 678 290, 447 322, 458 329
 C 469 336, 1006 514, 1024 520
">
</path>
</g>
<g id="awa-src"
stroke="rgb(0,255,0)"
stroke-width="2"
fill="none"
stroke-linecap="round"
stroke-linejoin="round"
filter="url(#lightUp)">
<path id="path_awa" d="M 0 516
 C 20 524, 621 771, 646 777
 C 671 783, 804 727, 799 721
 C 794 715, 490 602, 482 596
 C 474 590, 564 516, 559 515
 C 554 514, 313 575, 311 577
 C 309 579, 475 591, 486 587
 C 497 583, 659 435, 656 435
 C 653 435, 405 577, 397 572
 C 389 567, 393 266, 397 272
 C 401 278, 531 741, 533 748
 C 535 755, 450 508, 448 506
 C 446 504, 484 683, 479 677
 C 474 671, 299 321, 298 312
 C 297 303, 454 384, 456 394
 C 458 404, 352 628, 349 633
 C 346 638, 341 547, 346 544
 C 351 541, 500 550, 503 552
 C 506 554, 454 613, 450 615
 C 446 617, 360 620, 370 619
 C 380 618, 769 575, 781 580
 C 793 585, 760 783, 746 782
 C 732 781, 352 560, 337 555
 C 322 550, 259 612, 259 612
 C 259 612, 346 550, 348 545
 C 350 540, 324 430, 336 437
 C 348 444, 721 764, 719 773
 C 717 782, 275 720, 272 710
 C 269 700, 620 449, 634 441
 C 648 433, 714 442, 719 453
 C 724 464, 800 781, 802 791
 C 804 801, 784 770, 771 761
 C 758 752, 394 515, 382 502
 C 370 489, 394 336, 400 344
 C 406 352, 584 760, 584 761
 C 584 762, 390 397, 392 391
 C 394 385, 640 567, 645 564
 C 650 561, 545 306, 547 301
 C 549 296, 691 413, 697 417
 C 703 421, 743 437, 744 436
 C 745 435, 718 368, 716 378
 C 714 388, 683 753, 669 757
 C 655 761, 261 521, 261 514
 C 261 507, 669 527, 677 524
 C 685 521, 511 431, 513 429
 C 515 427, 757 472, 751 469
 C 745 466, 336 340, 324 337
 C 312 334, 352 373, 354 385
 C 356 397, 380 719, 390 728
 C 400 737, 677 672, 673 664
 C 669 656, 247 483, 247 480
 C 247 477, 663 560, 664 570
 C 665 580, 276 796, 268 787
 C 260 778, 395 283, 405 278
 C 415 273, 574 628, 582 635
 C 590 642, 654 512, 646 505
 C 638 498, 341 426, 342 425
 C 343 424, 680 448, 678 460
 C 676 472, 293 791, 289 799
 C 285 807, 550 737, 552 730
 C 554 723, 355 582, 351 568
 C 347 554, 434 293, 439 298
 C 444 303, 510 724, 518 724
 C 526 724, 685 310, 683 298
 C 681 286, 445 321, 456 328
 C 467 335, 1006 510, 1024 516
">
</path>
</g>
<filter id="lightUp"
filterUnits="userSpaceOnUse"
x="-100%" y="-100%" width="200%" height="200%"
color-interpolation-filters="sRGB">

<feGaussianBlur in="SourceGraphic"
stdDeviation="30" 
result="blur">
</feGaussianBlur>

<feMerge>
<feMergeNode in="blur"/>
<feMergeNode in="blur"/>
<feMergeNode in="SourceGraphic"/>
</feMerge>
</filter> 
</defs>

<rect width='1024' height='1024' fill='#000'/>

  <g>
    <use href="#thought-src" style="mix-blend-mode:lighten;"/>
    <use href="#will-src" style="mix-blend-mode:lighten;"/>
    <use href="#awa-src" style="mix-blend-mode:lighten;"/>
  </g>


</svg>