<svg width="1024" height="1024" viewBox="0 0 1024 1024"
     xmlns="http://www.w3.org/2000/svg"
     style="background:#000; isolation:isolate">

<defs>
<g id="thought-src"
stroke="rgb(0,0,255)"
stroke-width="1"
fill="none"
stroke-linecap="round"
stroke-linejoin="round"
filter="url(#lightUp)">
<path id="path_thought" d="M 0 522
 C 2 521, 472 368, 475 368
 C 478 368, 662 472, 662 473
 C 662 474, 560 558, 558 559
 C 556 560, 202 663, 201 663
 C 200 663, 378 561, 378 562
 C 378 563, 206 791, 206 791
 C 206 791, 395 437, 396 436
 C 397 435, 417 510, 417 511
 C 417 512, 300 675, 301 676
 C 302 677, 574 805, 574 804
 C 574 803, 237 316, 237 315
 C 237 314, 632 668, 633 668
 C 634 668, 516 266, 514 264
 C 512 262, 215 264, 216 265
 C 217 266, 654 420, 656 420
 C 658 420, 603 339, 603 339
 C 603 339, 603 436, 603 436
 C 603 436, 499 435, 499 434
 C 499 433, 530 263, 531 262
 C 532 261, 776 285, 777 287
 C 778 289, 787 763, 786 764
 C 785 765, 592 498, 590 497
 C 588 496, 355 440, 354 441
 C 353 442, 274 636, 274 637
 C 274 638, 268 722, 269 722
 C 270 722, 439 619, 439 619
 C 439 619, 287 621, 288 621
 C 289 621, 758 672, 758 672
 C 758 672, 229 664, 228 662
 C 227 660, 441 256, 442 256
 C 443 256, 368 755, 368 757
 C 368 759, 489 728, 490 726
 C 491 724, 571 338, 571 338
 C 571 338, 497 626, 497 628
 C 497 630, 509 796, 509 796
 C 509 796, 513 595, 513 595
 C 513 595, 405 787, 405 786
 C 405 785, 512 322, 512 322
 C 512 322, 401 815, 401 816
 C 401 817, 425 629, 426 627
 C 427 625, 599 234, 598 233
 C 597 232, 213 367, 213 368
 C 213 369, 695 532, 695 532
 C 695 532, 303 389, 301 390
 C 299 391, 282 729, 284 729
 C 286 729, 711 353, 712 353
 C 713 353, 523 682, 523 684
 C 523 686, 693 793, 692 793
 C 691 793, 312 672, 310 670
 C 308 668, 286 221, 288 221
 C 290 221, 708 643, 710 644
 C 712 645, 819 379, 819 378
 C 819 377, 719 448, 719 447
 C 719 446, 830 227, 828 227
 C 826 227, 256 554, 255 555
 C 254 556, 577 577, 578 576
 C 579 575, 469 426, 468 427
 C 467 428, 216 745, 217 745
 C 218 745, 742 555, 743 553
 C 744 551, 597 345, 596 345
 C 595 345, 502 638, 501 638
 C 500 638, 226 416, 225 414
 C 224 412, 370 248, 371 248
 C 372 248, 431 526, 432 526
 C 433 526, 539 358, 540 357
 C 541 356, 566 368, 565 369
 C 564 370, 358 714, 358 714
 C 358 714, 635 477, 636 476
 C 637 475, 672 367, 672 366
 C 672 365, 663 205, 662 207
 C 661 209, 402 825, 401 827
 C 400 829, 348 595, 348 593
 C 348 591, 485 233, 487 233
 C 489 233, 758 508, 757 509
 C 756 510, 271 549, 271 550
 C 271 551, 695 830, 695 830
 C 695 830, 215 610, 214 610
 C 213 610, 501 771, 503 770
 C 505 769, 699 342, 700 341
 C 701 340, 837 577, 837 577
 C 837 577, 630 265, 628 265
 C 626 265, 288 516, 287 518
 C 286 520, 392 803, 394 803
 C 396 803, 679 434, 679 432
 C 679 430, 435 273, 435 274
 C 435 275, 722 563, 722 563
 C 722 563, 336 201, 334 201
 C 332 201, 282 469, 282 471
 C 282 473, 317 642, 319 641
 C 321 640, 796 235, 797 236
 C 798 237, 514 793, 513 795
 C 512 797, 458 794, 458 793
 C 458 792, 595 437, 594 435
 C 593 433, 289 318, 289 318
 C 289 318, 670 414, 671 414
 C 672 414, 459 273, 457 272
 C 455 271, 259 234, 259 235
 C 259 236, 521 625, 523 627
 C 525 629, 808 752, 808 752
 C 808 752, 504 624, 502 624
 C 500 624, 308 777, 307 776
 C 306 775, 374 371, 374 370
 C 374 369, 250 485, 250 486
 C 250 487, 264 547, 264 548
 C 264 549, 357 768, 358 768
 C 359 768, 548 532, 549 530
 C 550 528, 502 323, 501 322
 C 500 321, 279 267, 279 267
 C 279 267, 394 379, 396 379
 C 398 379, 756 348, 756 349
 C 756 350, 426 567, 425 567
 C 424 567, 537 433, 538 433
 C 539 433, 804 523, 804 523
 C 804 523, 654 328, 652 329
 C 650 330, 303 801, 302 801
 C 301 801, 361 377, 362 376
 C 363 375, 460 572, 460 573
 C 460 574, 236 689, 236 689
 C 236 689, 446 567, 446 566
 C 446 565, 226 467, 226 466
 C 226 465, 330 207, 331 207
 C 332 207, 570 582, 571 583
 C 572 584, 642 553, 642 552
 C 642 551, 665 314, 664 313
 C 663 312, 391 224, 389 224
 C 387 224, 213 258, 213 259
 C 213 260, 347 596, 347 596
 C 347 596, 266 357, 269 357
 C 272 357, 1021 516, 1024 517
">
</path>
</g>
<g id="will-src"
stroke="rgb(255,0,0)"
stroke-width="1"
fill="none"
stroke-linecap="round"
stroke-linejoin="round"
filter="url(#lightUp)">
<path id="path_will" d="M 0 521
 C 2 520, 471 361, 474 361
 C 477 361, 659 466, 659 467
 C 659 468, 555 559, 553 560
 C 551 561, 197 667, 196 667
 C 195 667, 382 560, 382 560
 C 382 560, 207 793, 207 793
 C 207 793, 402 439, 403 438
 C 404 437, 418 517, 418 518
 C 418 519, 306 681, 307 682
 C 308 683, 572 805, 572 804
 C 572 803, 232 318, 232 317
 C 232 316, 641 666, 642 666
 C 643 666, 518 270, 516 268
 C 514 266, 213 269, 214 270
 C 215 271, 653 426, 655 426
 C 657 426, 602 334, 602 334
 C 602 334, 609 436, 609 436
 C 609 436, 502 437, 502 436
 C 502 435, 531 261, 532 260
 C 533 259, 774 282, 775 284
 C 776 286, 787 763, 786 764
 C 785 765, 582 500, 580 499
 C 578 498, 361 441, 360 442
 C 359 443, 279 630, 279 631
 C 279 632, 269 719, 270 719
 C 271 719, 442 614, 442 614
 C 442 614, 279 624, 280 624
 C 281 624, 757 672, 757 672
 C 757 672, 229 671, 228 669
 C 227 667, 440 253, 441 253
 C 442 253, 362 752, 362 754
 C 362 756, 485 725, 486 723
 C 487 721, 567 343, 567 343
 C 567 343, 495 617, 495 619
 C 495 621, 507 798, 507 798
 C 507 798, 513 598, 513 598
 C 513 598, 400 786, 400 785
 C 400 784, 507 321, 507 321
 C 507 321, 400 814, 400 815
 C 400 816, 428 628, 429 626
 C 430 624, 606 230, 605 229
 C 604 228, 214 366, 214 367
 C 214 368, 693 529, 693 529
 C 693 529, 304 385, 302 386
 C 300 387, 283 732, 285 732
 C 287 732, 709 347, 710 347
 C 711 347, 526 679, 526 681
 C 526 683, 697 784, 696 784
 C 695 784, 308 671, 306 669
 C 304 667, 284 224, 286 224
 C 288 224, 709 639, 711 640
 C 713 641, 821 375, 821 374
 C 821 373, 728 450, 728 449
 C 728 448, 833 230, 831 230
 C 829 230, 254 563, 253 564
 C 252 565, 576 585, 577 585
 C 578 585, 472 436, 471 437
 C 470 438, 208 740, 209 740
 C 210 740, 741 551, 743 549
 C 745 547, 597 345, 596 345
 C 595 345, 503 639, 502 639
 C 501 639, 229 420, 229 419
 C 229 418, 378 257, 379 257
 C 380 257, 426 526, 427 526
 C 428 526, 538 353, 539 352
 C 540 351, 562 362, 561 363
 C 560 364, 364 716, 364 716
 C 364 716, 641 481, 642 480
 C 643 479, 671 364, 671 363
 C 671 362, 657 203, 656 205
 C 655 207, 405 823, 404 825
 C 403 827, 345 596, 345 594
 C 345 592, 486 234, 488 234
 C 490 234, 759 510, 758 511
 C 757 512, 269 547, 269 548
 C 269 549, 693 828, 693 828
 C 693 828, 214 611, 213 611
 C 212 611, 494 769, 496 768
 C 498 767, 696 348, 697 347
 C 698 346, 828 577, 828 577
 C 828 577, 628 267, 626 267
 C 624 267, 296 519, 295 521
 C 294 523, 386 801, 388 801
 C 390 801, 679 435, 679 433
 C 679 431, 429 279, 429 279
 C 429 279, 720 557, 720 557
 C 720 557, 327 203, 325 203
 C 323 203, 275 469, 275 471
 C 275 473, 316 636, 318 635
 C 320 634, 796 228, 797 229
 C 798 230, 512 794, 511 796
 C 510 798, 459 797, 459 796
 C 459 795, 592 435, 591 433
 C 590 431, 294 315, 294 315
 C 294 315, 676 409, 677 409
 C 678 409, 459 277, 457 276
 C 455 275, 260 225, 260 226
 C 260 227, 516 625, 518 627
 C 520 629, 810 750, 810 750
 C 810 750, 502 619, 500 619
 C 498 619, 310 780, 310 779
 C 310 778, 373 370, 373 369
 C 373 368, 256 494, 256 495
 C 256 496, 267 547, 267 548
 C 267 549, 356 761, 357 761
 C 358 761, 555 531, 556 529
 C 557 527, 503 326, 502 325
 C 501 324, 281 264, 281 264
 C 281 264, 394 389, 396 389
 C 398 389, 757 344, 757 345
 C 757 346, 426 562, 425 562
 C 424 562, 536 431, 537 431
 C 538 431, 805 527, 805 527
 C 805 527, 661 331, 659 332
 C 657 333, 302 805, 301 805
 C 300 805, 357 372, 358 371
 C 359 370, 462 571, 462 572
 C 462 573, 238 689, 238 689
 C 238 689, 447 574, 447 573
 C 447 572, 223 470, 223 469
 C 223 468, 327 207, 328 207
 C 329 207, 572 584, 573 585
 C 574 586, 641 550, 641 549
 C 641 548, 659 312, 658 311
 C 657 310, 391 223, 389 223
 C 387 223, 222 260, 222 261
 C 222 262, 354 589, 354 589
 C 354 589, 273 359, 276 359
 C 279 359, 1021 513, 1024 514
">
</path>
</g>
<g id="awa-src"
stroke="rgb(0,255,0)"
stroke-width="1"
fill="none"
stroke-linecap="round"
stroke-linejoin="round"
filter="url(#lightUp)">
<path id="path_awa" d="M 0 513
 C 2 512, 477 362, 480 362
 C 483 362, 659 473, 659 474
 C 659 475, 557 558, 555 559
 C 553 560, 206 660, 205 660
 C 204 660, 380 559, 380 560
 C 380 561, 209 794, 209 794
 C 209 794, 400 435, 401 434
 C 402 433, 420 508, 420 509
 C 420 510, 308 682, 309 683
 C 310 684, 575 805, 575 804
 C 575 803, 228 313, 228 312
 C 228 311, 636 661, 637 661
 C 638 661, 515 269, 513 267
 C 511 265, 215 263, 216 264
 C 217 265, 653 426, 655 426
 C 657 426, 600 339, 600 339
 C 600 339, 603 431, 603 431
 C 603 431, 492 433, 492 432
 C 492 431, 530 257, 531 256
 C 532 255, 768 285, 769 287
 C 770 289, 788 761, 787 762
 C 786 763, 586 496, 584 495
 C 582 494, 361 444, 360 445
 C 359 446, 277 639, 277 640
 C 277 641, 267 716, 268 716
 C 269 716, 435 610, 435 610
 C 435 610, 287 630, 288 630
 C 289 630, 762 673, 762 673
 C 762 673, 231 669, 230 667
 C 229 665, 443 258, 444 258
 C 445 258, 364 758, 364 760
 C 364 762, 491 726, 492 724
 C 493 722, 567 346, 567 346
 C 567 346, 495 624, 495 626
 C 495 628, 499 797, 499 797
 C 499 797, 509 595, 509 595
 C 509 595, 403 786, 403 785
 C 403 784, 515 324, 515 324
 C 515 324, 401 813, 401 814
 C 401 815, 429 629, 430 627
 C 431 625, 601 232, 600 231
 C 599 230, 213 365, 213 366
 C 213 367, 696 529, 696 529
 C 696 529, 307 389, 305 390
 C 303 391, 284 724, 286 724
 C 288 724, 712 354, 713 354
 C 714 354, 526 674, 526 676
 C 526 678, 688 792, 687 792
 C 686 792, 311 666, 309 664
 C 307 662, 289 230, 291 230
 C 293 230, 715 640, 717 641
 C 719 642, 814 374, 814 373
 C 814 372, 719 447, 719 446
 C 719 445, 837 230, 835 230
 C 833 230, 258 557, 257 558
 C 256 559, 576 581, 577 580
 C 578 579, 469 429, 468 430
 C 467 431, 210 746, 211 746
 C 212 746, 737 554, 738 552
 C 739 550, 593 339, 592 339
 C 591 339, 505 642, 504 642
 C 503 642, 231 415, 230 413
 C 229 411, 375 254, 376 254
 C 377 254, 430 526, 431 526
 C 432 526, 543 353, 544 352
 C 545 351, 566 361, 565 362
 C 564 363, 362 715, 362 715
 C 362 715, 640 477, 641 476
 C 642 475, 668 365, 668 364
 C 668 363, 663 199, 662 201
 C 661 203, 405 822, 404 824
 C 403 826, 354 594, 354 592
 C 354 590, 491 234, 493 234
 C 495 234, 766 512, 765 513
 C 764 514, 274 548, 274 549
 C 274 550, 700 826, 700 826
 C 700 826, 217 611, 216 611
 C 215 611, 503 765, 505 764
 C 507 763, 700 344, 701 343
 C 702 342, 831 575, 831 575
 C 831 575, 630 272, 628 272
 C 626 272, 297 522, 296 524
 C 295 526, 387 797, 388 797
 C 389 797, 676 432, 676 430
 C 676 428, 431 278, 431 279
 C 431 280, 720 565, 720 565
 C 720 565, 334 196, 332 196
 C 330 196, 277 474, 277 476
 C 277 478, 310 641, 312 640
 C 314 639, 788 230, 789 231
 C 790 232, 512 792, 511 794
 C 510 796, 466 798, 466 797
 C 466 796, 597 435, 596 433
 C 595 431, 289 315, 289 315
 C 289 315, 674 412, 675 412
 C 676 412, 454 277, 452 276
 C 450 275, 263 227, 263 228
 C 263 229, 513 623, 515 625
 C 517 627, 814 752, 814 752
 C 814 752, 505 627, 503 627
 C 501 627, 305 776, 305 775
 C 305 774, 377 377, 377 376
 C 377 375, 251 490, 251 491
 C 251 492, 266 548, 266 549
 C 266 550, 359 770, 360 770
 C 361 770, 545 540, 546 538
 C 547 536, 500 321, 499 320
 C 498 319, 284 266, 284 266
 C 284 266, 393 388, 395 388
 C 397 388, 748 344, 748 345
 C 748 346, 421 567, 420 567
 C 419 567, 530 426, 532 426
 C 534 426, 807 527, 807 527
 C 807 527, 660 323, 658 324
 C 656 325, 308 802, 307 802
 C 306 802, 362 372, 363 371
 C 364 370, 458 576, 458 577
 C 458 578, 238 688, 238 688
 C 238 688, 454 573, 454 572
 C 454 571, 232 472, 232 471
 C 232 470, 329 208, 330 208
 C 331 208, 578 584, 579 585
 C 580 586, 645 549, 645 548
 C 645 547, 658 312, 657 311
 C 656 310, 391 225, 389 225
 C 387 225, 218 258, 218 259
 C 218 260, 349 594, 349 594
 C 349 594, 274 362, 277 362
 C 280 362, 1021 512, 1024 513
">
</path>
</g>
<filter id="lightUp"
filterUnits="userSpaceOnUse"
x="-100%" y="-100%" width="200%" height="200%"
color-interpolation-filters="sRGB">

<feGaussianBlur in="SourceGraphic"
stdDeviation="30" 
result="blur">
</feGaussianBlur>

<feMerge>
<feMergeNode in="blur"/>
<feMergeNode in="blur"/>
<feMergeNode in="SourceGraphic"/>
</feMerge>
</filter> 
</defs>

<rect width='1024' height='1024' fill='#000'/>

  <g>
    <use href="#thought-src" style="mix-blend-mode:lighten;"/>
    <use href="#will-src" style="mix-blend-mode:lighten;"/>
    <use href="#awa-src" style="mix-blend-mode:lighten;"/>
  </g>


</svg>